<?xml version="1.0" encoding="UTF-8" standalone="no"?>
<!DOCTYPE svg PUBLIC "-//W3C//DTD SVG 1.1//EN"
 "http://www.w3.org/Graphics/SVG/1.1/DTD/svg11.dtd">
<!-- Generated by graphviz version 2.47.0 (20210316.0004)
 -->
<!-- Title: dependencies Pages: 1 -->
<svg width="504pt" height="211pt"
 viewBox="0.00 0.00 504.00 211.00" xmlns="http://www.w3.org/2000/svg" xmlns:xlink="http://www.w3.org/1999/xlink">
<g id="graph0" class="graph" transform="scale(1 1) rotate(0) translate(4 207)">
<title>dependencies</title>
<polygon fill="white" stroke="transparent" points="-4,4 -4,-207 500,-207 500,4 -4,4"/>
<text text-anchor="start" x="227.01" y="-42.4" font-family="Times-12" font-weight="bold" font-size="14.00">Legend</text>
<polygon fill="#ffffb3" stroke="transparent" points="14,-10 14,-30 34,-30 34,-10 14,-10"/>
<text text-anchor="start" x="37.63" y="-15.4" font-family="Times-12" font-size="14.00"> &#160;Declarations</text>
<polygon fill="#8dd3c7" stroke="transparent" points="127,-10 127,-30 147,-30 147,-10 127,-10"/>
<text text-anchor="start" x="150.73" y="-15.4" font-family="Times-12" font-size="14.00"> &#160;Module</text>
<polygon fill="#80b1d3" stroke="transparent" points="213,-10 213,-30 233,-30 233,-10 213,-10"/>
<text text-anchor="start" x="236.78" y="-15.4" font-family="Times-12" font-size="14.00"> &#160;Bootstrap</text>
<polygon fill="#fdb462" stroke="transparent" points="310,-10 310,-30 330,-30 330,-10 310,-10"/>
<text text-anchor="start" x="333.67" y="-15.4" font-family="Times-12" font-size="14.00"> &#160;Providers</text>
<polygon fill="#fb8072" stroke="transparent" points="406,-10 406,-30 426,-30 426,-10 406,-10"/>
<text text-anchor="start" x="429.73" y="-15.4" font-family="Times-12" font-size="14.00"> &#160;Exports</text>
<g id="clust1" class="cluster">
<title>cluster_CaptchaModule</title>
<polygon fill="none" stroke="black" stroke-dasharray="1,5" points="83,-70 83,-195 413,-195 413,-70 83,-70"/>
</g>
<g id="clust4" class="cluster">
<title>cluster_CaptchaModule_exports</title>
<polygon fill="none" stroke="black" points="91,-135 91,-187 405,-187 405,-135 91,-135"/>
</g>
<!-- AdminEventsGateway  -->
<g id="node1" class="node">
<title>AdminEventsGateway </title>
<polygon fill="#fb8072" stroke="black" points="397.24,-179 250.76,-179 250.76,-143 397.24,-143 397.24,-179"/>
<text text-anchor="middle" x="324" y="-156.8" font-family="Times,serif" font-size="14.00">AdminEventsGateway </text>
</g>
<!-- WebEventsGateway  -->
<g id="node2" class="node">
<title>WebEventsGateway </title>
<polygon fill="#fb8072" stroke="black" points="232.78,-179 99.22,-179 99.22,-143 232.78,-143 232.78,-179"/>
<text text-anchor="middle" x="166" y="-156.8" font-family="Times,serif" font-size="14.00">WebEventsGateway </text>
</g>
<!-- CaptchaModule -->
<g id="node3" class="node">
<title>CaptchaModule</title>
<polygon fill="#8dd3c7" stroke="black" points="297.92,-114 294.92,-118 273.92,-118 270.92,-114 192.08,-114 192.08,-78 297.92,-78 297.92,-114"/>
<text text-anchor="middle" x="245" y="-91.8" font-family="Times,serif" font-size="14.00">CaptchaModule</text>
</g>
<!-- CaptchaModule&#45;&gt;AdminEventsGateway  -->
<g id="edge1" class="edge">
<title>CaptchaModule&#45;&gt;AdminEventsGateway </title>
<path fill="none" stroke="black" stroke-dasharray="5,2" d="M274.3,-114.11C274.3,-114.11 274.3,-132.99 274.3,-132.99"/>
<polygon fill="black" stroke="black" points="270.8,-132.99 274.3,-142.99 277.8,-132.99 270.8,-132.99"/>
</g>
<!-- CaptchaModule&#45;&gt;WebEventsGateway  -->
<g id="edge2" class="edge">
<title>CaptchaModule&#45;&gt;WebEventsGateway </title>
<path fill="none" stroke="black" stroke-dasharray="5,2" d="M212.59,-114.11C212.59,-114.11 212.59,-132.99 212.59,-132.99"/>
<polygon fill="black" stroke="black" points="209.09,-132.99 212.59,-142.99 216.09,-132.99 209.09,-132.99"/>
</g>
</g>
</svg>
