<?xml version="1.0" encoding="UTF-8" standalone="no"?>
<!DOCTYPE svg PUBLIC "-//W3C//DTD SVG 1.1//EN"
 "http://www.w3.org/Graphics/SVG/1.1/DTD/svg11.dtd">
<!-- Generated by graphviz version 2.47.0 (20210316.0004)
 -->
<!-- Title: dependencies Pages: 1 -->
<svg width="504pt" height="284pt"
 viewBox="0.00 0.00 504.00 284.00" xmlns="http://www.w3.org/2000/svg" xmlns:xlink="http://www.w3.org/1999/xlink">
<g id="graph0" class="graph" transform="scale(1 1) rotate(0) translate(4 280)">
<title>dependencies</title>
<polygon fill="white" stroke="transparent" points="-4,4 -4,-280 500,-280 500,4 -4,4"/>
<text text-anchor="start" x="227.01" y="-42.4" font-family="Times-12" font-weight="bold" font-size="14.00">Legend</text>
<polygon fill="#ffffb3" stroke="transparent" points="14,-10 14,-30 34,-30 34,-10 14,-10"/>
<text text-anchor="start" x="37.63" y="-15.4" font-family="Times-12" font-size="14.00"> &#160;Declarations</text>
<polygon fill="#8dd3c7" stroke="transparent" points="127,-10 127,-30 147,-30 147,-10 127,-10"/>
<text text-anchor="start" x="150.73" y="-15.4" font-family="Times-12" font-size="14.00"> &#160;Module</text>
<polygon fill="#80b1d3" stroke="transparent" points="213,-10 213,-30 233,-30 233,-10 213,-10"/>
<text text-anchor="start" x="236.78" y="-15.4" font-family="Times-12" font-size="14.00"> &#160;Bootstrap</text>
<polygon fill="#fdb462" stroke="transparent" points="310,-10 310,-30 330,-30 330,-10 310,-10"/>
<text text-anchor="start" x="333.67" y="-15.4" font-family="Times-12" font-size="14.00"> &#160;Providers</text>
<polygon fill="#fb8072" stroke="transparent" points="406,-10 406,-30 426,-30 426,-10 406,-10"/>
<text text-anchor="start" x="429.73" y="-15.4" font-family="Times-12" font-size="14.00"> &#160;Exports</text>
<g id="clust1" class="cluster">
<title>cluster_HistoryModule</title>
<polygon fill="none" stroke="black" stroke-dasharray="1,5" points="69.5,-70 69.5,-268 426.5,-268 426.5,-70 69.5,-70"/>
</g>
<g id="clust4" class="cluster">
<title>cluster_HistoryModule_exports</title>
<polygon fill="none" stroke="black" points="88.5,-208 88.5,-260 402.5,-260 402.5,-208 88.5,-208"/>
</g>
<g id="clust6" class="cluster">
<title>cluster_HistoryModule_providers</title>
<polygon fill="none" stroke="black" points="77.5,-78 77.5,-130 418.5,-130 418.5,-78 77.5,-78"/>
</g>
<!-- AdminEventsGateway  -->
<g id="node1" class="node">
<title>AdminEventsGateway </title>
<polygon fill="#fb8072" stroke="black" points="394.74,-252 248.26,-252 248.26,-216 394.74,-216 394.74,-252"/>
<text text-anchor="middle" x="321.5" y="-229.8" font-family="Times,serif" font-size="14.00">AdminEventsGateway </text>
</g>
<!-- WebEventsGateway  -->
<g id="node2" class="node">
<title>WebEventsGateway </title>
<polygon fill="#fb8072" stroke="black" points="230.28,-252 96.72,-252 96.72,-216 230.28,-216 230.28,-252"/>
<text text-anchor="middle" x="163.5" y="-229.8" font-family="Times,serif" font-size="14.00">WebEventsGateway </text>
</g>
<!-- HistoryModule -->
<g id="node3" class="node">
<title>HistoryModule</title>
<polygon fill="#8dd3c7" stroke="black" points="225.04,-187 222.04,-191 201.04,-191 198.04,-187 123.96,-187 123.96,-151 225.04,-151 225.04,-187"/>
<text text-anchor="middle" x="174.5" y="-164.8" font-family="Times,serif" font-size="14.00">HistoryModule</text>
</g>
<!-- HistoryModule&#45;&gt;AdminEventsGateway  -->
<g id="edge1" class="edge">
<title>HistoryModule&#45;&gt;AdminEventsGateway </title>
<path fill="none" stroke="black" stroke-dasharray="5,2" d="M225.14,-175C245.29,-175 263.78,-175 263.78,-175 263.78,-175 263.78,-205.98 263.78,-205.98"/>
<polygon fill="black" stroke="black" points="260.28,-205.98 263.78,-215.98 267.28,-205.98 260.28,-205.98"/>
</g>
<!-- HistoryModule&#45;&gt;WebEventsGateway  -->
<g id="edge2" class="edge">
<title>HistoryModule&#45;&gt;WebEventsGateway </title>
<path fill="none" stroke="black" stroke-dasharray="5,2" d="M174.5,-187.11C174.5,-187.11 174.5,-205.99 174.5,-205.99"/>
<polygon fill="black" stroke="black" points="171,-205.99 174.5,-215.99 178,-205.99 171,-205.99"/>
</g>
<!-- HistoryService -->
<g id="node4" class="node">
<title>HistoryService</title>
<ellipse fill="#fdb462" stroke="black" cx="341.5" cy="-104" rx="68.92" ry="18"/>
<text text-anchor="middle" x="341.5" y="-99.8" font-family="Times,serif" font-size="14.00">HistoryService</text>
</g>
<!-- HistoryService&#45;&gt;HistoryModule -->
<g id="edge3" class="edge">
<title>HistoryService&#45;&gt;HistoryModule</title>
<path fill="none" stroke="black" d="M333.58,-122.02C333.58,-139.37 333.58,-163 333.58,-163 333.58,-163 235.27,-163 235.27,-163"/>
<polygon fill="black" stroke="black" points="235.27,-159.5 225.27,-163 235.27,-166.5 235.27,-159.5"/>
</g>
<!-- HistoryTrpcRouter -->
<g id="node5" class="node">
<title>HistoryTrpcRouter</title>
<ellipse fill="#fdb462" stroke="black" cx="170.5" cy="-104" rx="84.53" ry="18"/>
<text text-anchor="middle" x="170.5" y="-99.8" font-family="Times,serif" font-size="14.00">HistoryTrpcRouter</text>
</g>
<!-- HistoryTrpcRouter&#45;&gt;HistoryModule -->
<g id="edge4" class="edge">
<title>HistoryTrpcRouter&#45;&gt;HistoryModule</title>
<path fill="none" stroke="black" d="M174.5,-122.11C174.5,-122.11 174.5,-140.99 174.5,-140.99"/>
<polygon fill="black" stroke="black" points="171,-140.99 174.5,-150.99 178,-140.99 171,-140.99"/>
</g>
</g>
</svg>
