<?xml version="1.0" encoding="UTF-8" standalone="no"?>
<!DOCTYPE svg PUBLIC "-//W3C//DTD SVG 1.1//EN"
 "http://www.w3.org/Graphics/SVG/1.1/DTD/svg11.dtd">
<!-- Generated by graphviz version 2.47.0 (20210316.0004)
 -->
<!-- Title: dependencies Pages: 1 -->
<svg width="504pt" height="284pt"
 viewBox="0.00 0.00 504.00 284.00" xmlns="http://www.w3.org/2000/svg" xmlns:xlink="http://www.w3.org/1999/xlink">
<g id="graph0" class="graph" transform="scale(1 1) rotate(0) translate(4 280)">
<title>dependencies</title>
<polygon fill="white" stroke="transparent" points="-4,4 -4,-280 500,-280 500,4 -4,4"/>
<text text-anchor="start" x="227.01" y="-42.4" font-family="Times-12" font-weight="bold" font-size="14.00">Legend</text>
<polygon fill="#ffffb3" stroke="transparent" points="14,-10 14,-30 34,-30 34,-10 14,-10"/>
<text text-anchor="start" x="37.63" y="-15.4" font-family="Times-12" font-size="14.00"> &#160;Declarations</text>
<polygon fill="#8dd3c7" stroke="transparent" points="127,-10 127,-30 147,-30 147,-10 127,-10"/>
<text text-anchor="start" x="150.73" y="-15.4" font-family="Times-12" font-size="14.00"> &#160;Module</text>
<polygon fill="#80b1d3" stroke="transparent" points="213,-10 213,-30 233,-30 233,-10 213,-10"/>
<text text-anchor="start" x="236.78" y="-15.4" font-family="Times-12" font-size="14.00"> &#160;Bootstrap</text>
<polygon fill="#fdb462" stroke="transparent" points="310,-10 310,-30 330,-30 330,-10 310,-10"/>
<text text-anchor="start" x="333.67" y="-15.4" font-family="Times-12" font-size="14.00"> &#160;Providers</text>
<polygon fill="#fb8072" stroke="transparent" points="406,-10 406,-30 426,-30 426,-10 406,-10"/>
<text text-anchor="start" x="429.73" y="-15.4" font-family="Times-12" font-size="14.00"> &#160;Exports</text>
<g id="clust1" class="cluster">
<title>cluster_SocketModule</title>
<polygon fill="none" stroke="black" stroke-dasharray="1,5" points="83,-70 83,-268 413,-268 413,-70 83,-70"/>
</g>
<g id="clust3" class="cluster">
<title>cluster_SocketModule_imports</title>
<polygon fill="none" stroke="black" points="150,-78 150,-130 358,-130 358,-78 150,-78"/>
</g>
<g id="clust4" class="cluster">
<title>cluster_SocketModule_exports</title>
<polygon fill="none" stroke="black" points="91,-208 91,-260 405,-260 405,-208 91,-208"/>
</g>
<!-- AuthModule -->
<g id="node1" class="node">
<title>AuthModule</title>
<polygon fill="#8dd3c7" stroke="black" points="349.55,-122 346.55,-126 325.55,-126 322.55,-122 262.45,-122 262.45,-86 349.55,-86 349.55,-122"/>
<text text-anchor="middle" x="306" y="-99.8" font-family="Times,serif" font-size="14.00">AuthModule</text>
</g>
<!-- SocketModule -->
<g id="node3" class="node">
<title>SocketModule</title>
<polygon fill="#8dd3c7" stroke="black" points="261.65,-187 258.65,-191 237.65,-191 234.65,-187 164.35,-187 164.35,-151 261.65,-151 261.65,-187"/>
<text text-anchor="middle" x="213" y="-164.8" font-family="Times,serif" font-size="14.00">SocketModule</text>
</g>
<!-- AuthModule&#45;&gt;SocketModule -->
<g id="edge1" class="edge">
<title>AuthModule&#45;&gt;SocketModule</title>
<path fill="none" stroke="black" d="M262.16,-104C256.65,-104 252.91,-104 252.91,-104 252.91,-104 252.91,-140.89 252.91,-140.89"/>
<polygon fill="black" stroke="black" points="249.41,-140.89 252.91,-150.89 256.41,-140.89 249.41,-140.89"/>
</g>
<!-- UserModule -->
<g id="node2" class="node">
<title>UserModule</title>
<polygon fill="#8dd3c7" stroke="black" points="243.98,-122 240.98,-126 219.98,-126 216.98,-122 158.02,-122 158.02,-86 243.98,-86 243.98,-122"/>
<text text-anchor="middle" x="201" y="-99.8" font-family="Times,serif" font-size="14.00">UserModule</text>
</g>
<!-- UserModule&#45;&gt;SocketModule -->
<g id="edge2" class="edge">
<title>UserModule&#45;&gt;SocketModule</title>
<path fill="none" stroke="black" d="M204.08,-122.11C204.08,-122.11 204.08,-140.99 204.08,-140.99"/>
<polygon fill="black" stroke="black" points="200.58,-140.99 204.08,-150.99 207.58,-140.99 200.58,-140.99"/>
</g>
<!-- AdminEventsGateway  -->
<g id="node4" class="node">
<title>AdminEventsGateway </title>
<polygon fill="#fb8072" stroke="black" points="397.24,-252 250.76,-252 250.76,-216 397.24,-216 397.24,-252"/>
<text text-anchor="middle" x="324" y="-229.8" font-family="Times,serif" font-size="14.00">AdminEventsGateway </text>
</g>
<!-- SocketModule&#45;&gt;AdminEventsGateway  -->
<g id="edge3" class="edge">
<title>SocketModule&#45;&gt;AdminEventsGateway </title>
<path fill="none" stroke="black" stroke-dasharray="5,2" d="M256.35,-187.11C256.35,-187.11 256.35,-205.99 256.35,-205.99"/>
<polygon fill="black" stroke="black" points="252.85,-205.99 256.35,-215.99 259.85,-205.99 252.85,-205.99"/>
</g>
<!-- WebEventsGateway  -->
<g id="node5" class="node">
<title>WebEventsGateway </title>
<polygon fill="#fb8072" stroke="black" points="232.78,-252 99.22,-252 99.22,-216 232.78,-216 232.78,-252"/>
<text text-anchor="middle" x="166" y="-229.8" font-family="Times,serif" font-size="14.00">WebEventsGateway </text>
</g>
<!-- SocketModule&#45;&gt;WebEventsGateway  -->
<g id="edge4" class="edge">
<title>SocketModule&#45;&gt;WebEventsGateway </title>
<path fill="none" stroke="black" stroke-dasharray="5,2" d="M198.53,-187.11C198.53,-187.11 198.53,-205.99 198.53,-205.99"/>
<polygon fill="black" stroke="black" points="195.03,-205.99 198.53,-215.99 202.03,-205.99 195.03,-205.99"/>
</g>
</g>
</svg>
