<?xml version="1.0" encoding="UTF-8" standalone="no"?>
<!DOCTYPE svg PUBLIC "-//W3C//DTD SVG 1.1//EN"
 "http://www.w3.org/Graphics/SVG/1.1/DTD/svg11.dtd">
<!-- Generated by graphviz version 2.47.0 (20210316.0004)
 -->
<!-- Title: dependencies Pages: 1 -->
<svg width="504pt" height="284pt"
 viewBox="0.00 0.00 504.00 284.00" xmlns="http://www.w3.org/2000/svg" xmlns:xlink="http://www.w3.org/1999/xlink">
<g id="graph0" class="graph" transform="scale(1 1) rotate(0) translate(4 280)">
<title>dependencies</title>
<polygon fill="white" stroke="transparent" points="-4,4 -4,-280 500,-280 500,4 -4,4"/>
<text text-anchor="start" x="227.01" y="-42.4" font-family="Times-12" font-weight="bold" font-size="14.00">Legend</text>
<polygon fill="#ffffb3" stroke="transparent" points="14,-10 14,-30 34,-30 34,-10 14,-10"/>
<text text-anchor="start" x="37.63" y="-15.4" font-family="Times-12" font-size="14.00"> &#160;Declarations</text>
<polygon fill="#8dd3c7" stroke="transparent" points="127,-10 127,-30 147,-30 147,-10 127,-10"/>
<text text-anchor="start" x="150.73" y="-15.4" font-family="Times-12" font-size="14.00"> &#160;Module</text>
<polygon fill="#80b1d3" stroke="transparent" points="213,-10 213,-30 233,-30 233,-10 213,-10"/>
<text text-anchor="start" x="236.78" y="-15.4" font-family="Times-12" font-size="14.00"> &#160;Bootstrap</text>
<polygon fill="#fdb462" stroke="transparent" points="310,-10 310,-30 330,-30 330,-10 310,-10"/>
<text text-anchor="start" x="333.67" y="-15.4" font-family="Times-12" font-size="14.00"> &#160;Providers</text>
<polygon fill="#fb8072" stroke="transparent" points="406,-10 406,-30 426,-30 426,-10 406,-10"/>
<text text-anchor="start" x="429.73" y="-15.4" font-family="Times-12" font-size="14.00"> &#160;Exports</text>
<g id="clust1" class="cluster">
<title>cluster_HelperModule</title>
<polygon fill="none" stroke="black" stroke-dasharray="1,5" points="24,-70 24,-268 472,-268 472,-70 24,-70"/>
</g>
<g id="clust3" class="cluster">
<title>cluster_HelperModule_imports</title>
<polygon fill="none" stroke="black" points="252,-78 252,-130 364,-130 364,-78 252,-78"/>
</g>
<g id="clust6" class="cluster">
<title>cluster_HelperModule_providers</title>
<polygon fill="none" stroke="black" points="110,-78 110,-130 244,-130 244,-78 110,-78"/>
</g>
<g id="clust4" class="cluster">
<title>cluster_HelperModule_exports</title>
<polygon fill="none" stroke="black" points="32,-208 32,-260 464,-260 464,-208 32,-208"/>
</g>
<!-- MailerModule -->
<g id="node1" class="node">
<title>MailerModule</title>
<polygon fill="#8dd3c7" stroke="black" points="356.37,-122 353.37,-126 332.37,-126 329.37,-122 259.63,-122 259.63,-86 356.37,-86 356.37,-122"/>
<text text-anchor="middle" x="308" y="-99.8" font-family="Times,serif" font-size="14.00">MailerModule</text>
</g>
<!-- HelperModule -->
<g id="node2" class="node">
<title>HelperModule</title>
<polygon fill="#8dd3c7" stroke="black" points="290.64,-187 287.64,-191 266.64,-191 263.64,-187 193.36,-187 193.36,-151 290.64,-151 290.64,-187"/>
<text text-anchor="middle" x="242" y="-164.8" font-family="Times,serif" font-size="14.00">HelperModule</text>
</g>
<!-- MailerModule&#45;&gt;HelperModule -->
<g id="edge1" class="edge">
<title>MailerModule&#45;&gt;HelperModule</title>
<path fill="none" stroke="black" d="M275.19,-122.11C275.19,-122.11 275.19,-140.99 275.19,-140.99"/>
<polygon fill="black" stroke="black" points="271.69,-140.99 275.19,-150.99 278.69,-140.99 271.69,-140.99"/>
</g>
<!-- AdminEventsGateway  -->
<g id="node3" class="node">
<title>AdminEventsGateway </title>
<polygon fill="#fb8072" stroke="black" points="456.24,-252 309.76,-252 309.76,-216 456.24,-216 456.24,-252"/>
<text text-anchor="middle" x="383" y="-229.8" font-family="Times,serif" font-size="14.00">AdminEventsGateway </text>
</g>
<!-- HelperModule&#45;&gt;AdminEventsGateway  -->
<g id="edge2" class="edge">
<title>HelperModule&#45;&gt;AdminEventsGateway </title>
<path fill="none" stroke="black" stroke-dasharray="5,2" d="M290.78,-169C312.45,-169 333.16,-169 333.16,-169 333.16,-169 333.16,-205.89 333.16,-205.89"/>
<polygon fill="black" stroke="black" points="329.66,-205.89 333.16,-215.89 336.66,-205.89 329.66,-205.89"/>
</g>
<!-- MailerModule  -->
<g id="node4" class="node">
<title>MailerModule </title>
<polygon fill="#fb8072" stroke="black" points="292.37,-252 191.63,-252 191.63,-216 292.37,-216 292.37,-252"/>
<text text-anchor="middle" x="242" y="-229.8" font-family="Times,serif" font-size="14.00">MailerModule </text>
</g>
<!-- HelperModule&#45;&gt;MailerModule  -->
<g id="edge3" class="edge">
<title>HelperModule&#45;&gt;MailerModule </title>
<path fill="none" stroke="black" stroke-dasharray="5,2" d="M242,-187.11C242,-187.11 242,-205.99 242,-205.99"/>
<polygon fill="black" stroke="black" points="238.5,-205.99 242,-215.99 245.5,-205.99 238.5,-205.99"/>
</g>
<!-- WebEventsGateway  -->
<g id="node5" class="node">
<title>WebEventsGateway </title>
<polygon fill="#fb8072" stroke="black" points="173.78,-252 40.22,-252 40.22,-216 173.78,-216 173.78,-252"/>
<text text-anchor="middle" x="107" y="-229.8" font-family="Times,serif" font-size="14.00">WebEventsGateway </text>
</g>
<!-- HelperModule&#45;&gt;WebEventsGateway  -->
<g id="edge4" class="edge">
<title>HelperModule&#45;&gt;WebEventsGateway </title>
<path fill="none" stroke="black" stroke-dasharray="5,2" d="M193.33,-169C169.47,-169 145.79,-169 145.79,-169 145.79,-169 145.79,-205.89 145.79,-205.89"/>
<polygon fill="black" stroke="black" points="142.29,-205.89 145.79,-215.89 149.29,-205.89 142.29,-205.89"/>
</g>
<!-- CronService -->
<g id="node6" class="node">
<title>CronService</title>
<ellipse fill="#fdb462" stroke="black" cx="177" cy="-104" rx="59.11" ry="18"/>
<text text-anchor="middle" x="177" y="-99.8" font-family="Times,serif" font-size="14.00">CronService</text>
</g>
<!-- CronService&#45;&gt;HelperModule -->
<g id="edge5" class="edge">
<title>CronService&#45;&gt;HelperModule</title>
<path fill="none" stroke="black" d="M214.74,-118.1C214.74,-118.1 214.74,-140.72 214.74,-140.72"/>
<polygon fill="black" stroke="black" points="211.24,-140.72 214.74,-150.72 218.24,-140.72 211.24,-140.72"/>
</g>
</g>
</svg>
