<?xml version="1.0" encoding="UTF-8" standalone="no"?>
<!DOCTYPE svg PUBLIC "-//W3C//DTD SVG 1.1//EN"
 "http://www.w3.org/Graphics/SVG/1.1/DTD/svg11.dtd">
<!-- Generated by graphviz version 2.47.0 (20210316.0004)
 -->
<!-- Title: dependencies Pages: 1 -->
<svg width="712pt" height="284pt"
 viewBox="0.00 0.00 712.00 284.00" xmlns="http://www.w3.org/2000/svg" xmlns:xlink="http://www.w3.org/1999/xlink">
<g id="graph0" class="graph" transform="scale(1 1) rotate(0) translate(4 280)">
<title>dependencies</title>
<polygon fill="white" stroke="transparent" points="-4,4 -4,-280 708,-280 708,4 -4,4"/>
<text text-anchor="start" x="331.01" y="-42.4" font-family="Times-12" font-weight="bold" font-size="14.00">Legend</text>
<polygon fill="#ffffb3" stroke="transparent" points="118,-10 118,-30 138,-30 138,-10 118,-10"/>
<text text-anchor="start" x="141.63" y="-15.4" font-family="Times-12" font-size="14.00"> &#160;Declarations</text>
<polygon fill="#8dd3c7" stroke="transparent" points="231,-10 231,-30 251,-30 251,-10 231,-10"/>
<text text-anchor="start" x="254.73" y="-15.4" font-family="Times-12" font-size="14.00"> &#160;Module</text>
<polygon fill="#80b1d3" stroke="transparent" points="317,-10 317,-30 337,-30 337,-10 317,-10"/>
<text text-anchor="start" x="340.78" y="-15.4" font-family="Times-12" font-size="14.00"> &#160;Bootstrap</text>
<polygon fill="#fdb462" stroke="transparent" points="414,-10 414,-30 434,-30 434,-10 414,-10"/>
<text text-anchor="start" x="437.67" y="-15.4" font-family="Times-12" font-size="14.00"> &#160;Providers</text>
<polygon fill="#fb8072" stroke="transparent" points="510,-10 510,-30 530,-30 530,-10 510,-10"/>
<text text-anchor="start" x="533.73" y="-15.4" font-family="Times-12" font-size="14.00"> &#160;Exports</text>
<g id="clust1" class="cluster">
<title>cluster_CollectionModule</title>
<polygon fill="none" stroke="black" stroke-dasharray="1,5" points="8,-70 8,-268 696,-268 696,-70 8,-70"/>
</g>
<g id="clust4" class="cluster">
<title>cluster_CollectionModule_exports</title>
<polygon fill="none" stroke="black" points="227,-208 227,-260 541,-260 541,-208 227,-208"/>
</g>
<g id="clust3" class="cluster">
<title>cluster_CollectionModule_imports</title>
<polygon fill="none" stroke="black" points="586,-78 586,-130 688,-130 688,-78 586,-78"/>
</g>
<g id="clust6" class="cluster">
<title>cluster_CollectionModule_providers</title>
<polygon fill="none" stroke="black" points="16,-78 16,-130 578,-130 578,-78 16,-78"/>
</g>
<!-- UserModule -->
<g id="node1" class="node">
<title>UserModule</title>
<polygon fill="#8dd3c7" stroke="black" points="679.98,-122 676.98,-126 655.98,-126 652.98,-122 594.02,-122 594.02,-86 679.98,-86 679.98,-122"/>
<text text-anchor="middle" x="637" y="-99.8" font-family="Times,serif" font-size="14.00">UserModule</text>
</g>
<!-- CollectionModule -->
<g id="node2" class="node">
<title>CollectionModule</title>
<polygon fill="#8dd3c7" stroke="black" points="439.88,-187 436.88,-191 415.88,-191 412.88,-187 322.12,-187 322.12,-151 439.88,-151 439.88,-187"/>
<text text-anchor="middle" x="381" y="-164.8" font-family="Times,serif" font-size="14.00">CollectionModule</text>
</g>
<!-- UserModule&#45;&gt;CollectionModule -->
<g id="edge1" class="edge">
<title>UserModule&#45;&gt;CollectionModule</title>
<path fill="none" stroke="black" d="M637,-122.11C637,-141.34 637,-169 637,-169 637,-169 450.05,-169 450.05,-169"/>
<polygon fill="black" stroke="black" points="450.05,-165.5 440.05,-169 450.05,-172.5 450.05,-165.5"/>
</g>
<!-- AdminEventsGateway  -->
<g id="node3" class="node">
<title>AdminEventsGateway </title>
<polygon fill="#fb8072" stroke="black" points="533.24,-252 386.76,-252 386.76,-216 533.24,-216 533.24,-252"/>
<text text-anchor="middle" x="460" y="-229.8" font-family="Times,serif" font-size="14.00">AdminEventsGateway </text>
</g>
<!-- CollectionModule&#45;&gt;AdminEventsGateway  -->
<g id="edge2" class="edge">
<title>CollectionModule&#45;&gt;AdminEventsGateway </title>
<path fill="none" stroke="black" stroke-dasharray="5,2" d="M413.41,-187.11C413.41,-187.11 413.41,-205.99 413.41,-205.99"/>
<polygon fill="black" stroke="black" points="409.91,-205.99 413.41,-215.99 416.91,-205.99 409.91,-205.99"/>
</g>
<!-- WebEventsGateway  -->
<g id="node4" class="node">
<title>WebEventsGateway </title>
<polygon fill="#fb8072" stroke="black" points="368.78,-252 235.22,-252 235.22,-216 368.78,-216 368.78,-252"/>
<text text-anchor="middle" x="302" y="-229.8" font-family="Times,serif" font-size="14.00">WebEventsGateway </text>
</g>
<!-- CollectionModule&#45;&gt;WebEventsGateway  -->
<g id="edge3" class="edge">
<title>CollectionModule&#45;&gt;WebEventsGateway </title>
<path fill="none" stroke="black" stroke-dasharray="5,2" d="M345.48,-187.11C345.48,-187.11 345.48,-205.99 345.48,-205.99"/>
<polygon fill="black" stroke="black" points="341.98,-205.99 345.48,-215.99 348.98,-205.99 341.98,-205.99"/>
</g>
<!-- CollectionAbility -->
<g id="node5" class="node">
<title>CollectionAbility</title>
<ellipse fill="#fdb462" stroke="black" cx="491" cy="-104" rx="78.77" ry="18"/>
<text text-anchor="middle" x="491" y="-99.8" font-family="Times,serif" font-size="14.00">CollectionAbility</text>
</g>
<!-- CollectionAbility&#45;&gt;CollectionModule -->
<g id="edge4" class="edge">
<title>CollectionAbility&#45;&gt;CollectionModule</title>
<path fill="none" stroke="black" d="M426.15,-114.44C426.15,-114.44 426.15,-140.97 426.15,-140.97"/>
<polygon fill="black" stroke="black" points="422.65,-140.97 426.15,-150.97 429.65,-140.97 422.65,-140.97"/>
</g>
<!-- CollectionService -->
<g id="node6" class="node">
<title>CollectionService</title>
<ellipse fill="#fdb462" stroke="black" cx="314" cy="-104" rx="80.45" ry="18"/>
<text text-anchor="middle" x="314" y="-99.8" font-family="Times,serif" font-size="14.00">CollectionService</text>
</g>
<!-- CollectionService&#45;&gt;CollectionModule -->
<g id="edge5" class="edge">
<title>CollectionService&#45;&gt;CollectionModule</title>
<path fill="none" stroke="black" d="M358.14,-119.08C358.14,-119.08 358.14,-140.76 358.14,-140.76"/>
<polygon fill="black" stroke="black" points="354.64,-140.76 358.14,-150.76 361.64,-140.76 354.64,-140.76"/>
</g>
<!-- CollectionTrpcRouter -->
<g id="node7" class="node">
<title>CollectionTrpcRouter</title>
<ellipse fill="#fdb462" stroke="black" cx="120" cy="-104" rx="95.56" ry="18"/>
<text text-anchor="middle" x="120" y="-99.8" font-family="Times,serif" font-size="14.00">CollectionTrpcRouter</text>
</g>
<!-- CollectionTrpcRouter&#45;&gt;CollectionModule -->
<g id="edge6" class="edge">
<title>CollectionTrpcRouter&#45;&gt;CollectionModule</title>
<path fill="none" stroke="black" d="M120,-122.11C120,-141.34 120,-169 120,-169 120,-169 312.1,-169 312.1,-169"/>
<polygon fill="black" stroke="black" points="312.1,-172.5 322.1,-169 312.1,-165.5 312.1,-172.5"/>
</g>
</g>
</svg>
