<?xml version="1.0" encoding="UTF-8" standalone="no"?>
<!DOCTYPE svg PUBLIC "-//W3C//DTD SVG 1.1//EN"
 "http://www.w3.org/Graphics/SVG/1.1/DTD/svg11.dtd">
<!-- Generated by graphviz version 2.47.0 (20210316.0004)
 -->
<!-- Title: dependencies Pages: 1 -->
<svg width="754pt" height="284pt"
 viewBox="0.00 0.00 754.00 284.00" xmlns="http://www.w3.org/2000/svg" xmlns:xlink="http://www.w3.org/1999/xlink">
<g id="graph0" class="graph" transform="scale(1 1) rotate(0) translate(4 280)">
<title>dependencies</title>
<polygon fill="white" stroke="transparent" points="-4,4 -4,-280 750,-280 750,4 -4,4"/>
<text text-anchor="start" x="352.01" y="-42.4" font-family="Times-12" font-weight="bold" font-size="14.00">Legend</text>
<polygon fill="#ffffb3" stroke="transparent" points="139,-10 139,-30 159,-30 159,-10 139,-10"/>
<text text-anchor="start" x="162.63" y="-15.4" font-family="Times-12" font-size="14.00"> &#160;Declarations</text>
<polygon fill="#8dd3c7" stroke="transparent" points="252,-10 252,-30 272,-30 272,-10 252,-10"/>
<text text-anchor="start" x="275.73" y="-15.4" font-family="Times-12" font-size="14.00"> &#160;Module</text>
<polygon fill="#80b1d3" stroke="transparent" points="338,-10 338,-30 358,-30 358,-10 338,-10"/>
<text text-anchor="start" x="361.78" y="-15.4" font-family="Times-12" font-size="14.00"> &#160;Bootstrap</text>
<polygon fill="#fdb462" stroke="transparent" points="435,-10 435,-30 455,-30 455,-10 435,-10"/>
<text text-anchor="start" x="458.67" y="-15.4" font-family="Times-12" font-size="14.00"> &#160;Providers</text>
<polygon fill="#fb8072" stroke="transparent" points="531,-10 531,-30 551,-30 551,-10 531,-10"/>
<text text-anchor="start" x="554.73" y="-15.4" font-family="Times-12" font-size="14.00"> &#160;Exports</text>
<g id="clust1" class="cluster">
<title>cluster_NotificationModule</title>
<polygon fill="none" stroke="black" stroke-dasharray="1,5" points="8,-70 8,-268 738,-268 738,-70 8,-70"/>
</g>
<g id="clust3" class="cluster">
<title>cluster_NotificationModule_imports</title>
<polygon fill="none" stroke="black" points="628,-78 628,-130 730,-130 730,-78 628,-78"/>
</g>
<g id="clust4" class="cluster">
<title>cluster_NotificationModule_exports</title>
<polygon fill="none" stroke="black" points="244,-208 244,-260 558,-260 558,-208 244,-208"/>
</g>
<g id="clust6" class="cluster">
<title>cluster_NotificationModule_providers</title>
<polygon fill="none" stroke="black" points="16,-78 16,-130 620,-130 620,-78 16,-78"/>
</g>
<!-- UserModule -->
<g id="node1" class="node">
<title>UserModule</title>
<polygon fill="#8dd3c7" stroke="black" points="721.98,-122 718.98,-126 697.98,-126 694.98,-122 636.02,-122 636.02,-86 721.98,-86 721.98,-122"/>
<text text-anchor="middle" x="679" y="-99.8" font-family="Times,serif" font-size="14.00">UserModule</text>
</g>
<!-- NotificationModule -->
<g id="node2" class="node">
<title>NotificationModule</title>
<polygon fill="#8dd3c7" stroke="black" points="461.7,-187 458.7,-191 437.7,-191 434.7,-187 334.3,-187 334.3,-151 461.7,-151 461.7,-187"/>
<text text-anchor="middle" x="398" y="-164.8" font-family="Times,serif" font-size="14.00">NotificationModule</text>
</g>
<!-- UserModule&#45;&gt;NotificationModule -->
<g id="edge1" class="edge">
<title>UserModule&#45;&gt;NotificationModule</title>
<path fill="none" stroke="black" d="M679,-122.11C679,-141.34 679,-169 679,-169 679,-169 471.76,-169 471.76,-169"/>
<polygon fill="black" stroke="black" points="471.76,-165.5 461.76,-169 471.76,-172.5 471.76,-165.5"/>
</g>
<!-- AdminEventsGateway  -->
<g id="node3" class="node">
<title>AdminEventsGateway </title>
<polygon fill="#fb8072" stroke="black" points="550.24,-252 403.76,-252 403.76,-216 550.24,-216 550.24,-252"/>
<text text-anchor="middle" x="477" y="-229.8" font-family="Times,serif" font-size="14.00">AdminEventsGateway </text>
</g>
<!-- NotificationModule&#45;&gt;AdminEventsGateway  -->
<g id="edge2" class="edge">
<title>NotificationModule&#45;&gt;AdminEventsGateway </title>
<path fill="none" stroke="black" stroke-dasharray="5,2" d="M432.74,-187.11C432.74,-187.11 432.74,-205.99 432.74,-205.99"/>
<polygon fill="black" stroke="black" points="429.24,-205.99 432.74,-215.99 436.24,-205.99 429.24,-205.99"/>
</g>
<!-- WebEventsGateway  -->
<g id="node4" class="node">
<title>WebEventsGateway </title>
<polygon fill="#fb8072" stroke="black" points="385.78,-252 252.22,-252 252.22,-216 385.78,-216 385.78,-252"/>
<text text-anchor="middle" x="319" y="-229.8" font-family="Times,serif" font-size="14.00">WebEventsGateway </text>
</g>
<!-- NotificationModule&#45;&gt;WebEventsGateway  -->
<g id="edge3" class="edge">
<title>NotificationModule&#45;&gt;WebEventsGateway </title>
<path fill="none" stroke="black" stroke-dasharray="5,2" d="M360.14,-187.11C360.14,-187.11 360.14,-205.99 360.14,-205.99"/>
<polygon fill="black" stroke="black" points="356.65,-205.99 360.14,-215.99 363.65,-205.99 356.65,-205.99"/>
</g>
<!-- NotifactionTrpcRouter -->
<g id="node5" class="node">
<title>NotifactionTrpcRouter</title>
<ellipse fill="#fdb462" stroke="black" cx="512" cy="-104" rx="99.56" ry="18"/>
<text text-anchor="middle" x="512" y="-99.8" font-family="Times,serif" font-size="14.00">NotifactionTrpcRouter</text>
</g>
<!-- NotifactionTrpcRouter&#45;&gt;NotificationModule -->
<g id="edge4" class="edge">
<title>NotifactionTrpcRouter&#45;&gt;NotificationModule</title>
<path fill="none" stroke="black" d="M437.04,-115.92C437.04,-115.92 437.04,-140.77 437.04,-140.77"/>
<polygon fill="black" stroke="black" points="433.54,-140.77 437.04,-150.77 440.54,-140.77 433.54,-140.77"/>
</g>
<!-- NotificationListener -->
<g id="node6" class="node">
<title>NotificationListener</title>
<ellipse fill="#fdb462" stroke="black" cx="305" cy="-104" rx="89.18" ry="18"/>
<text text-anchor="middle" x="305" y="-99.8" font-family="Times,serif" font-size="14.00">NotificationListener</text>
</g>
<!-- NotificationListener&#45;&gt;NotificationModule -->
<g id="edge5" class="edge">
<title>NotificationListener&#45;&gt;NotificationModule</title>
<path fill="none" stroke="black" d="M364.37,-117.47C364.37,-117.47 364.37,-140.86 364.37,-140.86"/>
<polygon fill="black" stroke="black" points="360.87,-140.86 364.37,-150.86 367.87,-140.86 360.87,-140.86"/>
</g>
<!-- NotificationService -->
<g id="node7" class="node">
<title>NotificationService</title>
<ellipse fill="#fdb462" stroke="black" cx="111" cy="-104" rx="86.81" ry="18"/>
<text text-anchor="middle" x="111" y="-99.8" font-family="Times,serif" font-size="14.00">NotificationService</text>
</g>
<!-- NotificationService&#45;&gt;NotificationModule -->
<g id="edge6" class="edge">
<title>NotificationService&#45;&gt;NotificationModule</title>
<path fill="none" stroke="black" d="M111,-122.11C111,-141.34 111,-169 111,-169 111,-169 324.31,-169 324.31,-169"/>
<polygon fill="black" stroke="black" points="324.31,-172.5 334.31,-169 324.31,-165.5 324.31,-172.5"/>
</g>
</g>
</svg>
