<?xml version="1.0" encoding="UTF-8" standalone="no"?>
<!DOCTYPE svg PUBLIC "-//W3C//DTD SVG 1.1//EN"
 "http://www.w3.org/Graphics/SVG/1.1/DTD/svg11.dtd">
<!-- Generated by graphviz version 2.47.0 (20210316.0004)
 -->
<!-- Title: dependencies Pages: 1 -->
<svg width="713pt" height="284pt"
 viewBox="0.00 0.00 713.00 284.00" xmlns="http://www.w3.org/2000/svg" xmlns:xlink="http://www.w3.org/1999/xlink">
<g id="graph0" class="graph" transform="scale(1 1) rotate(0) translate(4 280)">
<title>dependencies</title>
<polygon fill="white" stroke="transparent" points="-4,4 -4,-280 709,-280 709,4 -4,4"/>
<text text-anchor="start" x="331.51" y="-42.4" font-family="Times-12" font-weight="bold" font-size="14.00">Legend</text>
<polygon fill="#ffffb3" stroke="transparent" points="118.5,-10 118.5,-30 138.5,-30 138.5,-10 118.5,-10"/>
<text text-anchor="start" x="142.13" y="-15.4" font-family="Times-12" font-size="14.00"> &#160;Declarations</text>
<polygon fill="#8dd3c7" stroke="transparent" points="231.5,-10 231.5,-30 251.5,-30 251.5,-10 231.5,-10"/>
<text text-anchor="start" x="255.23" y="-15.4" font-family="Times-12" font-size="14.00"> &#160;Module</text>
<polygon fill="#80b1d3" stroke="transparent" points="317.5,-10 317.5,-30 337.5,-30 337.5,-10 317.5,-10"/>
<text text-anchor="start" x="341.28" y="-15.4" font-family="Times-12" font-size="14.00"> &#160;Bootstrap</text>
<polygon fill="#fdb462" stroke="transparent" points="414.5,-10 414.5,-30 434.5,-30 434.5,-10 414.5,-10"/>
<text text-anchor="start" x="438.17" y="-15.4" font-family="Times-12" font-size="14.00"> &#160;Providers</text>
<polygon fill="#fb8072" stroke="transparent" points="510.5,-10 510.5,-30 530.5,-30 530.5,-10 510.5,-10"/>
<text text-anchor="start" x="534.23" y="-15.4" font-family="Times-12" font-size="14.00"> &#160;Exports</text>
<g id="clust1" class="cluster">
<title>cluster_AuthModule</title>
<polygon fill="none" stroke="black" stroke-dasharray="1,5" points="8,-70 8,-268 697,-268 697,-70 8,-70"/>
</g>
<g id="clust4" class="cluster">
<title>cluster_AuthModule_exports</title>
<polygon fill="none" stroke="black" points="169,-208 169,-260 483,-260 483,-208 169,-208"/>
</g>
<g id="clust6" class="cluster">
<title>cluster_AuthModule_providers</title>
<polygon fill="none" stroke="black" points="250,-78 250,-130 689,-130 689,-78 250,-78"/>
</g>
<g id="clust3" class="cluster">
<title>cluster_AuthModule_imports</title>
<polygon fill="none" stroke="black" points="16,-78 16,-130 242,-130 242,-78 16,-78"/>
</g>
<!-- CaptchaModule -->
<g id="node1" class="node">
<title>CaptchaModule</title>
<polygon fill="#8dd3c7" stroke="black" points="233.92,-122 230.92,-126 209.92,-126 206.92,-122 128.08,-122 128.08,-86 233.92,-86 233.92,-122"/>
<text text-anchor="middle" x="181" y="-99.8" font-family="Times,serif" font-size="14.00">CaptchaModule</text>
</g>
<!-- AuthModule -->
<g id="node3" class="node">
<title>AuthModule</title>
<polygon fill="#8dd3c7" stroke="black" points="366.55,-187 363.55,-191 342.55,-191 339.55,-187 279.45,-187 279.45,-151 366.55,-151 366.55,-187"/>
<text text-anchor="middle" x="323" y="-164.8" font-family="Times,serif" font-size="14.00">AuthModule</text>
</g>
<!-- CaptchaModule&#45;&gt;AuthModule -->
<g id="edge1" class="edge">
<title>CaptchaModule&#45;&gt;AuthModule</title>
<path fill="none" stroke="black" d="M205.41,-122.02C205.41,-139.37 205.41,-163 205.41,-163 205.41,-163 269.21,-163 269.21,-163"/>
<polygon fill="black" stroke="black" points="269.21,-166.5 279.21,-163 269.21,-159.5 269.21,-166.5"/>
</g>
<!-- UserModule -->
<g id="node2" class="node">
<title>UserModule</title>
<polygon fill="#8dd3c7" stroke="black" points="109.98,-122 106.98,-126 85.98,-126 82.98,-122 24.02,-122 24.02,-86 109.98,-86 109.98,-122"/>
<text text-anchor="middle" x="67" y="-99.8" font-family="Times,serif" font-size="14.00">UserModule</text>
</g>
<!-- UserModule&#45;&gt;AuthModule -->
<g id="edge2" class="edge">
<title>UserModule&#45;&gt;AuthModule</title>
<path fill="none" stroke="black" d="M67,-122.28C67,-143.32 67,-175 67,-175 67,-175 269.28,-175 269.28,-175"/>
<polygon fill="black" stroke="black" points="269.28,-178.5 279.28,-175 269.28,-171.5 269.28,-178.5"/>
</g>
<!-- AdminEventsGateway  -->
<g id="node4" class="node">
<title>AdminEventsGateway </title>
<polygon fill="#fb8072" stroke="black" points="475.24,-252 328.76,-252 328.76,-216 475.24,-216 475.24,-252"/>
<text text-anchor="middle" x="402" y="-229.8" font-family="Times,serif" font-size="14.00">AdminEventsGateway </text>
</g>
<!-- AuthModule&#45;&gt;AdminEventsGateway  -->
<g id="edge3" class="edge">
<title>AuthModule&#45;&gt;AdminEventsGateway </title>
<path fill="none" stroke="black" stroke-dasharray="5,2" d="M347.83,-187.11C347.83,-187.11 347.83,-205.99 347.83,-205.99"/>
<polygon fill="black" stroke="black" points="344.33,-205.99 347.83,-215.99 351.33,-205.99 344.33,-205.99"/>
</g>
<!-- WebEventsGateway  -->
<g id="node5" class="node">
<title>WebEventsGateway </title>
<polygon fill="#fb8072" stroke="black" points="310.78,-252 177.22,-252 177.22,-216 310.78,-216 310.78,-252"/>
<text text-anchor="middle" x="244" y="-229.8" font-family="Times,serif" font-size="14.00">WebEventsGateway </text>
</g>
<!-- AuthModule&#45;&gt;WebEventsGateway  -->
<g id="edge4" class="edge">
<title>AuthModule&#45;&gt;WebEventsGateway </title>
<path fill="none" stroke="black" stroke-dasharray="5,2" d="M295.06,-187.11C295.06,-187.11 295.06,-205.99 295.06,-205.99"/>
<polygon fill="black" stroke="black" points="291.56,-205.99 295.06,-215.99 298.56,-205.99 291.56,-205.99"/>
</g>
<!-- GoogleStrategy -->
<g id="node6" class="node">
<title>GoogleStrategy</title>
<ellipse fill="#fdb462" stroke="black" cx="609" cy="-104" rx="71.79" ry="18"/>
<text text-anchor="middle" x="609" y="-99.8" font-family="Times,serif" font-size="14.00">GoogleStrategy</text>
</g>
<!-- GoogleStrategy&#45;&gt;AuthModule -->
<g id="edge5" class="edge">
<title>GoogleStrategy&#45;&gt;AuthModule</title>
<path fill="none" stroke="black" d="M609,-122.28C609,-143.32 609,-175 609,-175 609,-175 376.75,-175 376.75,-175"/>
<polygon fill="black" stroke="black" points="376.75,-171.5 366.75,-175 376.75,-178.5 376.75,-171.5"/>
</g>
<!-- JwtStrategy -->
<g id="node7" class="node">
<title>JwtStrategy</title>
<ellipse fill="#fdb462" stroke="black" cx="463" cy="-104" rx="56.76" ry="18"/>
<text text-anchor="middle" x="463" y="-99.8" font-family="Times,serif" font-size="14.00">JwtStrategy</text>
</g>
<!-- JwtStrategy&#45;&gt;AuthModule -->
<g id="edge6" class="edge">
<title>JwtStrategy&#45;&gt;AuthModule</title>
<path fill="none" stroke="black" d="M440.75,-120.75C440.75,-138.19 440.75,-163 440.75,-163 440.75,-163 376.84,-163 376.84,-163"/>
<polygon fill="black" stroke="black" points="376.84,-159.5 366.84,-163 376.84,-166.5 376.84,-159.5"/>
</g>
<!-- LocalStrategy -->
<g id="node8" class="node">
<title>LocalStrategy</title>
<ellipse fill="#fdb462" stroke="black" cx="323" cy="-104" rx="65.41" ry="18"/>
<text text-anchor="middle" x="323" y="-99.8" font-family="Times,serif" font-size="14.00">LocalStrategy</text>
</g>
<!-- LocalStrategy&#45;&gt;AuthModule -->
<g id="edge7" class="edge">
<title>LocalStrategy&#45;&gt;AuthModule</title>
<path fill="none" stroke="black" d="M323,-122.11C323,-122.11 323,-140.99 323,-140.99"/>
<polygon fill="black" stroke="black" points="319.5,-140.99 323,-150.99 326.5,-140.99 319.5,-140.99"/>
</g>
</g>
</svg>
