<svg width="72" height="72" viewBox="0 0 72 72" fill="none" xmlns="http://www.w3.org/2000/svg">
<rect width="72" height="72" fill="url(#paint0_linear_674_2127)"/>
<g filter="url(#filter0_d_674_2127)">
<path d="M15.8579 49.7116C13.9884 49.7116 13.177 48.7851 13.4236 46.9319L14.4083 39.5319L9.21281 24.4689C8.96243 23.6926 9.00618 23.079 9.34406 22.6283C9.71054 22.1525 10.3232 21.9146 11.1822 21.9146H11.2959H12.9254C13.8096 21.9146 14.3862 22.3278 14.6551 23.1542L16.194 28.676C16.8208 31.1803 17.3559 33.2337 17.7995 34.8364H17.9511C18.1879 34.3857 18.5541 33.7221 19.0497 32.8456C20.0542 30.9924 20.7949 29.6026 21.2719 28.676L24.0259 23.6425C24.298 23.1166 24.6941 22.7034 25.2141 22.4029C25.7374 22.0773 26.2896 21.9146 26.8706 21.9146H28.0075C28.8664 21.9146 29.4048 22.14 29.6227 22.5907C29.8659 23.0415 29.7464 23.655 29.2641 24.4313L20.0167 39.5319L19.032 46.9319C18.7854 48.7851 17.7274 49.7116 15.8579 49.7116ZM36.495 50.2375C33.7161 50.2375 31.4823 49.2734 29.7936 47.3451C27.9986 45.2666 27.3227 42.562 27.7659 39.2314C28.2158 35.8507 29.6149 33.121 31.963 31.0425C34.1396 29.1143 36.63 28.1501 39.4343 28.1501C42.2132 28.1501 44.447 29.1143 46.1357 31.0425C47.9273 33.1461 48.5999 35.8757 48.1533 39.2314C47.7101 42.562 46.3144 45.2666 43.9662 47.3451C41.7644 49.2734 39.274 50.2375 36.495 50.2375ZM37.0949 45.7299C38.5096 45.7299 39.6995 45.1414 40.6645 43.9644C41.601 42.8125 42.2025 41.2348 42.4691 39.2314C42.739 37.203 42.5591 35.6128 41.9292 34.4608C41.2807 33.2588 40.2491 32.6578 38.8344 32.6578C37.3944 32.6578 36.2028 33.2588 35.2597 34.4608C34.3233 35.6128 33.7201 37.203 33.4502 39.2314C33.1836 41.2348 33.3652 42.8125 33.9951 43.9644C34.6469 45.1414 35.6801 45.7299 37.0949 45.7299ZM55.3657 50.2375C54.3804 50.2375 53.6044 49.8995 53.0375 49.2233C52.474 48.5221 52.2605 47.6582 52.3972 46.6314C52.5338 45.6047 52.9755 44.7532 53.7223 44.0771C54.4725 43.3759 55.3402 43.0253 56.3255 43.0253C57.3107 43.0253 58.0851 43.3759 58.6487 44.0771C59.2408 44.7532 59.4685 45.6047 59.3319 46.6314C59.1986 47.6331 58.7569 48.4846 58.0067 49.1857C57.2566 49.8869 56.3762 50.2375 55.3657 50.2375ZM56.6954 40.2456C55.4827 40.2456 54.9152 39.6696 54.9927 38.5177L55.9251 26.3846L56.1643 24.0181C56.3418 22.1149 57.3652 21.1633 59.2347 21.1633C61.1042 21.1633 61.8744 22.1149 61.5453 24.0181L61.1546 26.3846L59.813 33.3339L58.8579 38.5177C58.6289 39.6696 57.908 40.2456 56.6954 40.2456Z" fill="white"/>
<path d="M15.8579 49.7116C13.9884 49.7116 13.177 48.7851 13.4236 46.9319L14.4083 39.5319L9.21281 24.4689C8.96243 23.6926 9.00618 23.079 9.34406 22.6283C9.71054 22.1525 10.3232 21.9146 11.1822 21.9146H11.2959H12.9254C13.8096 21.9146 14.3862 22.3278 14.6551 23.1542L16.194 28.676C16.8208 31.1803 17.3559 33.2337 17.7995 34.8364H17.9511C18.1879 34.3857 18.5541 33.7221 19.0497 32.8456C20.0542 30.9924 20.7949 29.6026 21.2719 28.676L24.0259 23.6425C24.298 23.1166 24.6941 22.7034 25.2141 22.4029C25.7374 22.0773 26.2896 21.9146 26.8706 21.9146H28.0075C28.8664 21.9146 29.4048 22.14 29.6227 22.5907C29.8659 23.0415 29.7464 23.655 29.2641 24.4313L20.0167 39.5319L19.032 46.9319C18.7854 48.7851 17.7274 49.7116 15.8579 49.7116ZM36.495 50.2375C33.7161 50.2375 31.4823 49.2734 29.7936 47.3451C27.9986 45.2666 27.3227 42.562 27.7659 39.2314C28.2158 35.8507 29.6149 33.121 31.963 31.0425C34.1396 29.1143 36.63 28.1501 39.4343 28.1501C42.2132 28.1501 44.447 29.1143 46.1357 31.0425C47.9273 33.1461 48.5999 35.8757 48.1533 39.2314C47.7101 42.562 46.3144 45.2666 43.9662 47.3451C41.7644 49.2734 39.274 50.2375 36.495 50.2375ZM37.0949 45.7299C38.5096 45.7299 39.6995 45.1414 40.6645 43.9644C41.601 42.8125 42.2025 41.2348 42.4691 39.2314C42.739 37.203 42.5591 35.6128 41.9292 34.4608C41.2807 33.2588 40.2491 32.6578 38.8344 32.6578C37.3944 32.6578 36.2028 33.2588 35.2597 34.4608C34.3233 35.6128 33.7201 37.203 33.4502 39.2314C33.1836 41.2348 33.3652 42.8125 33.9951 43.9644C34.6469 45.1414 35.6801 45.7299 37.0949 45.7299ZM55.3657 50.2375C54.3804 50.2375 53.6044 49.8995 53.0375 49.2233C52.474 48.5221 52.2605 47.6582 52.3972 46.6314C52.5338 45.6047 52.9755 44.7532 53.7223 44.0771C54.4725 43.3759 55.3402 43.0253 56.3255 43.0253C57.3107 43.0253 58.0851 43.3759 58.6487 44.0771C59.2408 44.7532 59.4685 45.6047 59.3319 46.6314C59.1986 47.6331 58.7569 48.4846 58.0067 49.1857C57.2566 49.8869 56.3762 50.2375 55.3657 50.2375ZM56.6954 40.2456C55.4827 40.2456 54.9152 39.6696 54.9927 38.5177L55.9251 26.3846L56.1643 24.0181C56.3418 22.1149 57.3652 21.1633 59.2347 21.1633C61.1042 21.1633 61.8744 22.1149 61.5453 24.0181L61.1546 26.3846L59.813 33.3339L58.8579 38.5177C58.6289 39.6696 57.908 40.2456 56.6954 40.2456Z" fill="url(#paint1_linear_674_2127)" fill-opacity="0.2"/>
</g>
<defs>
<filter id="filter0_d_674_2127" x="1.25317" y="19.1633" width="65.4679" height="37.0742" filterUnits="userSpaceOnUse" color-interpolation-filters="sRGB">
<feFlood flood-opacity="0" result="BackgroundImageFix"/>
<feColorMatrix in="SourceAlpha" type="matrix" values="0 0 0 0 0 0 0 0 0 0 0 0 0 0 0 0 0 0 127 0" result="hardAlpha"/>
<feOffset dy="2"/>
<feGaussianBlur stdDeviation="2"/>
<feComposite in2="hardAlpha" operator="out"/>
<feColorMatrix type="matrix" values="0 0 0 0 1 0 0 0 0 0.454534 0 0 0 0 0.0625 0 0 0 0.2 0"/>
<feBlend mode="normal" in2="BackgroundImageFix" result="effect1_dropShadow_674_2127"/>
<feBlend mode="normal" in="SourceGraphic" in2="effect1_dropShadow_674_2127" result="shape"/>
</filter>
<linearGradient id="paint0_linear_674_2127" x1="13.5498" y1="60" x2="83.6203" y2="24.531" gradientUnits="userSpaceOnUse">
<stop stop-color="#FFC400"/>
<stop offset="1" stop-color="#FEE278"/>
</linearGradient>
<linearGradient id="paint1_linear_674_2127" x1="17" y1="50" x2="25.8828" y2="22.8179" gradientUnits="userSpaceOnUse">
<stop stop-color="#FFC600"/>
<stop offset="1" stop-color="#FFC600" stop-opacity="0"/>
</linearGradient>
</defs>
</svg>
