<?xml version="1.0" encoding="UTF-8" standalone="no"?>
<!DOCTYPE svg PUBLIC "-//W3C//DTD SVG 1.1//EN"
 "http://www.w3.org/Graphics/SVG/1.1/DTD/svg11.dtd">
<!-- Generated by graphviz version 2.47.0 (20210316.0004)
 -->
<!-- Title: dependencies Pages: 1 -->
<svg width="819pt" height="284pt"
 viewBox="0.00 0.00 819.00 284.00" xmlns="http://www.w3.org/2000/svg" xmlns:xlink="http://www.w3.org/1999/xlink">
<g id="graph0" class="graph" transform="scale(1 1) rotate(0) translate(4 280)">
<title>dependencies</title>
<polygon fill="white" stroke="transparent" points="-4,4 -4,-280 815,-280 815,4 -4,4"/>
<text text-anchor="start" x="384.51" y="-42.4" font-family="Times-12" font-weight="bold" font-size="14.00">Legend</text>
<polygon fill="#ffffb3" stroke="transparent" points="171.5,-10 171.5,-30 191.5,-30 191.5,-10 171.5,-10"/>
<text text-anchor="start" x="195.13" y="-15.4" font-family="Times-12" font-size="14.00"> &#160;Declarations</text>
<polygon fill="#8dd3c7" stroke="transparent" points="284.5,-10 284.5,-30 304.5,-30 304.5,-10 284.5,-10"/>
<text text-anchor="start" x="308.23" y="-15.4" font-family="Times-12" font-size="14.00"> &#160;Module</text>
<polygon fill="#80b1d3" stroke="transparent" points="370.5,-10 370.5,-30 390.5,-30 390.5,-10 370.5,-10"/>
<text text-anchor="start" x="394.28" y="-15.4" font-family="Times-12" font-size="14.00"> &#160;Bootstrap</text>
<polygon fill="#fdb462" stroke="transparent" points="467.5,-10 467.5,-30 487.5,-30 487.5,-10 467.5,-10"/>
<text text-anchor="start" x="491.17" y="-15.4" font-family="Times-12" font-size="14.00"> &#160;Providers</text>
<polygon fill="#fb8072" stroke="transparent" points="563.5,-10 563.5,-30 583.5,-30 583.5,-10 563.5,-10"/>
<text text-anchor="start" x="587.23" y="-15.4" font-family="Times-12" font-size="14.00"> &#160;Exports</text>
<g id="clust1" class="cluster">
<title>cluster_CommentModule</title>
<polygon fill="none" stroke="black" stroke-dasharray="1,5" points="8,-70 8,-268 803,-268 803,-70 8,-70"/>
</g>
<g id="clust3" class="cluster">
<title>cluster_CommentModule_imports</title>
<polygon fill="none" stroke="black" points="573,-78 573,-130 795,-130 795,-78 573,-78"/>
</g>
<g id="clust6" class="cluster">
<title>cluster_CommentModule_providers</title>
<polygon fill="none" stroke="black" points="16,-78 16,-130 565,-130 565,-78 16,-78"/>
</g>
<g id="clust4" class="cluster">
<title>cluster_CommentModule_exports</title>
<polygon fill="none" stroke="black" points="327,-208 327,-260 641,-260 641,-208 327,-208"/>
</g>
<!-- InteractModule -->
<g id="node1" class="node">
<title>InteractModule</title>
<polygon fill="#8dd3c7" stroke="black" points="787.3,-122 784.3,-126 763.3,-126 760.3,-122 684.7,-122 684.7,-86 787.3,-86 787.3,-122"/>
<text text-anchor="middle" x="736" y="-99.8" font-family="Times,serif" font-size="14.00">InteractModule</text>
</g>
<!-- CommentModule -->
<g id="node3" class="node">
<title>CommentModule</title>
<polygon fill="#8dd3c7" stroke="black" points="538.27,-187 535.27,-191 514.27,-191 511.27,-187 423.73,-187 423.73,-151 538.27,-151 538.27,-187"/>
<text text-anchor="middle" x="481" y="-164.8" font-family="Times,serif" font-size="14.00">CommentModule</text>
</g>
<!-- InteractModule&#45;&gt;CommentModule -->
<g id="edge1" class="edge">
<title>InteractModule&#45;&gt;CommentModule</title>
<path fill="none" stroke="black" d="M736,-122.28C736,-143.32 736,-175 736,-175 736,-175 548.54,-175 548.54,-175"/>
<polygon fill="black" stroke="black" points="548.54,-171.5 538.54,-175 548.54,-178.5 548.54,-171.5"/>
</g>
<!-- UserModule -->
<g id="node2" class="node">
<title>UserModule</title>
<polygon fill="#8dd3c7" stroke="black" points="666.98,-122 663.98,-126 642.98,-126 639.98,-122 581.02,-122 581.02,-86 666.98,-86 666.98,-122"/>
<text text-anchor="middle" x="624" y="-99.8" font-family="Times,serif" font-size="14.00">UserModule</text>
</g>
<!-- UserModule&#45;&gt;CommentModule -->
<g id="edge2" class="edge">
<title>UserModule&#45;&gt;CommentModule</title>
<path fill="none" stroke="black" d="M607.07,-122.02C607.07,-139.37 607.07,-163 607.07,-163 607.07,-163 548.5,-163 548.5,-163"/>
<polygon fill="black" stroke="black" points="548.5,-159.5 538.5,-163 548.5,-166.5 548.5,-159.5"/>
</g>
<!-- AdminEventsGateway  -->
<g id="node4" class="node">
<title>AdminEventsGateway </title>
<polygon fill="#fb8072" stroke="black" points="633.24,-252 486.76,-252 486.76,-216 633.24,-216 633.24,-252"/>
<text text-anchor="middle" x="560" y="-229.8" font-family="Times,serif" font-size="14.00">AdminEventsGateway </text>
</g>
<!-- CommentModule&#45;&gt;AdminEventsGateway  -->
<g id="edge3" class="edge">
<title>CommentModule&#45;&gt;AdminEventsGateway </title>
<path fill="none" stroke="black" stroke-dasharray="5,2" d="M512.63,-187.11C512.63,-187.11 512.63,-205.99 512.63,-205.99"/>
<polygon fill="black" stroke="black" points="509.13,-205.99 512.63,-215.99 516.13,-205.99 509.13,-205.99"/>
</g>
<!-- WebEventsGateway  -->
<g id="node5" class="node">
<title>WebEventsGateway </title>
<polygon fill="#fb8072" stroke="black" points="468.78,-252 335.22,-252 335.22,-216 468.78,-216 468.78,-252"/>
<text text-anchor="middle" x="402" y="-229.8" font-family="Times,serif" font-size="14.00">WebEventsGateway </text>
</g>
<!-- CommentModule&#45;&gt;WebEventsGateway  -->
<g id="edge4" class="edge">
<title>CommentModule&#45;&gt;WebEventsGateway </title>
<path fill="none" stroke="black" stroke-dasharray="5,2" d="M446.25,-187.11C446.25,-187.11 446.25,-205.99 446.25,-205.99"/>
<polygon fill="black" stroke="black" points="442.75,-205.99 446.25,-215.99 449.75,-205.99 442.75,-205.99"/>
</g>
<!-- CommentAbility -->
<g id="node6" class="node">
<title>CommentAbility</title>
<ellipse fill="#fdb462" stroke="black" cx="481" cy="-104" rx="76.48" ry="18"/>
<text text-anchor="middle" x="481" y="-99.8" font-family="Times,serif" font-size="14.00">CommentAbility</text>
</g>
<!-- CommentAbility&#45;&gt;CommentModule -->
<g id="edge5" class="edge">
<title>CommentAbility&#45;&gt;CommentModule</title>
<path fill="none" stroke="black" d="M481,-122.11C481,-122.11 481,-140.99 481,-140.99"/>
<polygon fill="black" stroke="black" points="477.5,-140.99 481,-150.99 484.5,-140.99 477.5,-140.99"/>
</g>
<!-- CommentService -->
<g id="node7" class="node">
<title>CommentService</title>
<ellipse fill="#fdb462" stroke="black" cx="308" cy="-104" rx="78.17" ry="18"/>
<text text-anchor="middle" x="308" y="-99.8" font-family="Times,serif" font-size="14.00">CommentService</text>
</g>
<!-- CommentService&#45;&gt;CommentModule -->
<g id="edge6" class="edge">
<title>CommentService&#45;&gt;CommentModule</title>
<path fill="none" stroke="black" d="M360.6,-117.39C360.6,-134.8 360.6,-163 360.6,-163 360.6,-163 413.62,-163 413.62,-163"/>
<polygon fill="black" stroke="black" points="413.62,-166.5 423.62,-163 413.62,-159.5 413.62,-166.5"/>
</g>
<!-- CommentTrpcRouter -->
<g id="node8" class="node">
<title>CommentTrpcRouter</title>
<ellipse fill="#fdb462" stroke="black" cx="118" cy="-104" rx="93.78" ry="18"/>
<text text-anchor="middle" x="118" y="-99.8" font-family="Times,serif" font-size="14.00">CommentTrpcRouter</text>
</g>
<!-- CommentTrpcRouter&#45;&gt;CommentModule -->
<g id="edge7" class="edge">
<title>CommentTrpcRouter&#45;&gt;CommentModule</title>
<path fill="none" stroke="black" d="M118,-122.28C118,-143.32 118,-175 118,-175 118,-175 413.48,-175 413.48,-175"/>
<polygon fill="black" stroke="black" points="413.48,-178.5 423.48,-175 413.48,-171.5 413.48,-178.5"/>
</g>
</g>
</svg>
