<?xml version="1.0" encoding="UTF-8" standalone="no"?>
<!DOCTYPE svg PUBLIC "-//W3C//DTD SVG 1.1//EN"
 "http://www.w3.org/Graphics/SVG/1.1/DTD/svg11.dtd">
<!-- Generated by graphviz version 2.47.0 (20210316.0004)
 -->
<!-- Title: dependencies Pages: 1 -->
<svg width="1197pt" height="284pt"
 viewBox="0.00 0.00 1197.00 284.00" xmlns="http://www.w3.org/2000/svg" xmlns:xlink="http://www.w3.org/1999/xlink">
<g id="graph0" class="graph" transform="scale(1 1) rotate(0) translate(4 280)">
<title>dependencies</title>
<polygon fill="white" stroke="transparent" points="-4,4 -4,-280 1193,-280 1193,4 -4,4"/>
<text text-anchor="start" x="573.51" y="-42.4" font-family="Times-12" font-weight="bold" font-size="14.00">Legend</text>
<polygon fill="#ffffb3" stroke="transparent" points="360.5,-10 360.5,-30 380.5,-30 380.5,-10 360.5,-10"/>
<text text-anchor="start" x="384.13" y="-15.4" font-family="Times-12" font-size="14.00"> &#160;Declarations</text>
<polygon fill="#8dd3c7" stroke="transparent" points="473.5,-10 473.5,-30 493.5,-30 493.5,-10 473.5,-10"/>
<text text-anchor="start" x="497.23" y="-15.4" font-family="Times-12" font-size="14.00"> &#160;Module</text>
<polygon fill="#80b1d3" stroke="transparent" points="559.5,-10 559.5,-30 579.5,-30 579.5,-10 559.5,-10"/>
<text text-anchor="start" x="583.28" y="-15.4" font-family="Times-12" font-size="14.00"> &#160;Bootstrap</text>
<polygon fill="#fdb462" stroke="transparent" points="656.5,-10 656.5,-30 676.5,-30 676.5,-10 656.5,-10"/>
<text text-anchor="start" x="680.17" y="-15.4" font-family="Times-12" font-size="14.00"> &#160;Providers</text>
<polygon fill="#fb8072" stroke="transparent" points="752.5,-10 752.5,-30 772.5,-30 772.5,-10 752.5,-10"/>
<text text-anchor="start" x="776.23" y="-15.4" font-family="Times-12" font-size="14.00"> &#160;Exports</text>
<g id="clust1" class="cluster">
<title>cluster_InteractModule</title>
<polygon fill="none" stroke="black" stroke-dasharray="1,5" points="8,-70 8,-268 1181,-268 1181,-70 8,-70"/>
</g>
<g id="clust3" class="cluster">
<title>cluster_InteractModule_imports</title>
<polygon fill="none" stroke="black" points="969,-78 969,-130 1173,-130 1173,-78 969,-78"/>
</g>
<g id="clust4" class="cluster">
<title>cluster_InteractModule_exports</title>
<polygon fill="none" stroke="black" points="483,-208 483,-260 797,-260 797,-208 483,-208"/>
</g>
<g id="clust6" class="cluster">
<title>cluster_InteractModule_providers</title>
<polygon fill="none" stroke="black" points="16,-78 16,-130 961,-130 961,-78 16,-78"/>
</g>
<!-- BullModule -->
<g id="node1" class="node">
<title>BullModule</title>
<polygon fill="#8dd3c7" stroke="black" points="1164.67,-122 1161.67,-126 1140.67,-126 1137.67,-122 1081.33,-122 1081.33,-86 1164.67,-86 1164.67,-122"/>
<text text-anchor="middle" x="1123" y="-99.8" font-family="Times,serif" font-size="14.00">BullModule</text>
</g>
<!-- InteractModule -->
<g id="node3" class="node">
<title>InteractModule</title>
<polygon fill="#8dd3c7" stroke="black" points="688.3,-187 685.3,-191 664.3,-191 661.3,-187 585.7,-187 585.7,-151 688.3,-151 688.3,-187"/>
<text text-anchor="middle" x="637" y="-164.8" font-family="Times,serif" font-size="14.00">InteractModule</text>
</g>
<!-- BullModule&#45;&gt;InteractModule -->
<g id="edge1" class="edge">
<title>BullModule&#45;&gt;InteractModule</title>
<path fill="none" stroke="black" d="M1123,-122.29C1123,-144.21 1123,-178 1123,-178 1123,-178 698.55,-178 698.55,-178"/>
<polygon fill="black" stroke="black" points="698.55,-174.5 688.55,-178 698.55,-181.5 698.55,-174.5"/>
</g>
<!-- UserModule -->
<g id="node2" class="node">
<title>UserModule</title>
<polygon fill="#8dd3c7" stroke="black" points="1062.98,-122 1059.98,-126 1038.98,-126 1035.98,-122 977.02,-122 977.02,-86 1062.98,-86 1062.98,-122"/>
<text text-anchor="middle" x="1020" y="-99.8" font-family="Times,serif" font-size="14.00">UserModule</text>
</g>
<!-- UserModule&#45;&gt;InteractModule -->
<g id="edge2" class="edge">
<title>UserModule&#45;&gt;InteractModule</title>
<path fill="none" stroke="black" d="M1020,-122.11C1020,-141.34 1020,-169 1020,-169 1020,-169 698.26,-169 698.26,-169"/>
<polygon fill="black" stroke="black" points="698.26,-165.5 688.26,-169 698.26,-172.5 698.26,-165.5"/>
</g>
<!-- AdminEventsGateway  -->
<g id="node4" class="node">
<title>AdminEventsGateway </title>
<polygon fill="#fb8072" stroke="black" points="789.24,-252 642.76,-252 642.76,-216 789.24,-216 789.24,-252"/>
<text text-anchor="middle" x="716" y="-229.8" font-family="Times,serif" font-size="14.00">AdminEventsGateway </text>
</g>
<!-- InteractModule&#45;&gt;AdminEventsGateway  -->
<g id="edge3" class="edge">
<title>InteractModule&#45;&gt;AdminEventsGateway </title>
<path fill="none" stroke="black" stroke-dasharray="5,2" d="M665.51,-187.11C665.51,-187.11 665.51,-205.99 665.51,-205.99"/>
<polygon fill="black" stroke="black" points="662.01,-205.99 665.51,-215.99 669.01,-205.99 662.01,-205.99"/>
</g>
<!-- WebEventsGateway  -->
<g id="node5" class="node">
<title>WebEventsGateway </title>
<polygon fill="#fb8072" stroke="black" points="624.78,-252 491.22,-252 491.22,-216 624.78,-216 624.78,-252"/>
<text text-anchor="middle" x="558" y="-229.8" font-family="Times,serif" font-size="14.00">WebEventsGateway </text>
</g>
<!-- InteractModule&#45;&gt;WebEventsGateway  -->
<g id="edge4" class="edge">
<title>InteractModule&#45;&gt;WebEventsGateway </title>
<path fill="none" stroke="black" stroke-dasharray="5,2" d="M605.37,-187.11C605.37,-187.11 605.37,-205.99 605.37,-205.99"/>
<polygon fill="black" stroke="black" points="601.87,-205.99 605.37,-215.99 608.87,-205.99 601.87,-205.99"/>
</g>
<!-- CountingService -->
<g id="node6" class="node">
<title>CountingService</title>
<ellipse fill="#fdb462" stroke="black" cx="877" cy="-104" rx="75.88" ry="18"/>
<text text-anchor="middle" x="877" y="-99.8" font-family="Times,serif" font-size="14.00">CountingService</text>
</g>
<!-- CountingService&#45;&gt;InteractModule -->
<g id="edge5" class="edge">
<title>CountingService&#45;&gt;InteractModule</title>
<path fill="none" stroke="black" d="M877,-122.03C877,-138.4 877,-160 877,-160 877,-160 698.19,-160 698.19,-160"/>
<polygon fill="black" stroke="black" points="698.19,-156.5 688.19,-160 698.19,-163.5 698.19,-156.5"/>
</g>
<!-- FollowService -->
<g id="node7" class="node">
<title>FollowService</title>
<ellipse fill="#fdb462" stroke="black" cx="716" cy="-104" rx="67.21" ry="18"/>
<text text-anchor="middle" x="716" y="-99.8" font-family="Times,serif" font-size="14.00">FollowService</text>
</g>
<!-- FollowService&#45;&gt;InteractModule -->
<g id="edge6" class="edge">
<title>FollowService&#45;&gt;InteractModule</title>
<path fill="none" stroke="black" d="M668.4,-116.84C668.4,-116.84 668.4,-140.52 668.4,-140.52"/>
<polygon fill="black" stroke="black" points="664.9,-140.52 668.4,-150.52 671.9,-140.52 664.9,-140.52"/>
</g>
<!-- InteractListener -->
<g id="node8" class="node">
<title>InteractListener</title>
<ellipse fill="#fdb462" stroke="black" cx="558" cy="-104" rx="72.32" ry="18"/>
<text text-anchor="middle" x="558" y="-99.8" font-family="Times,serif" font-size="14.00">InteractListener</text>
</g>
<!-- InteractListener&#45;&gt;InteractModule -->
<g id="edge7" class="edge">
<title>InteractListener&#45;&gt;InteractModule</title>
<path fill="none" stroke="black" d="M608.01,-117.15C608.01,-117.15 608.01,-140.69 608.01,-140.69"/>
<polygon fill="black" stroke="black" points="604.51,-140.69 608.01,-150.69 611.51,-140.69 604.51,-140.69"/>
</g>
<!-- InteractTrpcRouter -->
<g id="node9" class="node">
<title>InteractTrpcRouter</title>
<ellipse fill="#fdb462" stroke="black" cx="383" cy="-104" rx="85.07" ry="18"/>
<text text-anchor="middle" x="383" y="-99.8" font-family="Times,serif" font-size="14.00">InteractTrpcRouter</text>
</g>
<!-- InteractTrpcRouter&#45;&gt;InteractModule -->
<g id="edge8" class="edge">
<title>InteractTrpcRouter&#45;&gt;InteractModule</title>
<path fill="none" stroke="black" d="M383,-122.03C383,-138.4 383,-160 383,-160 383,-160 575.6,-160 575.6,-160"/>
<polygon fill="black" stroke="black" points="575.6,-163.5 585.6,-160 575.6,-156.5 575.6,-163.5"/>
</g>
<!-- LikeService -->
<g id="node10" class="node">
<title>LikeService</title>
<ellipse fill="#fdb462" stroke="black" cx="222" cy="-104" rx="57.88" ry="18"/>
<text text-anchor="middle" x="222" y="-99.8" font-family="Times,serif" font-size="14.00">LikeService</text>
</g>
<!-- LikeService&#45;&gt;InteractModule -->
<g id="edge9" class="edge">
<title>LikeService&#45;&gt;InteractModule</title>
<path fill="none" stroke="black" d="M222,-122.11C222,-141.34 222,-169 222,-169 222,-169 575.7,-169 575.7,-169"/>
<polygon fill="black" stroke="black" points="575.7,-172.5 585.7,-169 575.7,-165.5 575.7,-172.5"/>
</g>
<!-- ViewService -->
<g id="node11" class="node">
<title>ViewService</title>
<ellipse fill="#fdb462" stroke="black" cx="85" cy="-104" rx="60.81" ry="18"/>
<text text-anchor="middle" x="85" y="-99.8" font-family="Times,serif" font-size="14.00">ViewService</text>
</g>
<!-- ViewService&#45;&gt;InteractModule -->
<g id="edge10" class="edge">
<title>ViewService&#45;&gt;InteractModule</title>
<path fill="none" stroke="black" d="M85,-122.29C85,-144.21 85,-178 85,-178 85,-178 575.56,-178 575.56,-178"/>
<polygon fill="black" stroke="black" points="575.56,-181.5 585.56,-178 575.56,-174.5 575.56,-181.5"/>
</g>
</g>
</svg>
