<?xml version="1.0" encoding="UTF-8" standalone="no"?>
<!DOCTYPE svg PUBLIC "-//W3C//DTD SVG 1.1//EN"
 "http://www.w3.org/Graphics/SVG/1.1/DTD/svg11.dtd">
<!-- Generated by graphviz version 2.47.0 (20210316.0004)
 -->
<!-- Title: dependencies Pages: 1 -->
<svg width="654pt" height="284pt"
 viewBox="0.00 0.00 654.00 284.00" xmlns="http://www.w3.org/2000/svg" xmlns:xlink="http://www.w3.org/1999/xlink">
<g id="graph0" class="graph" transform="scale(1 1) rotate(0) translate(4 280)">
<title>dependencies</title>
<polygon fill="white" stroke="transparent" points="-4,4 -4,-280 650,-280 650,4 -4,4"/>
<text text-anchor="start" x="302.01" y="-42.4" font-family="Times-12" font-weight="bold" font-size="14.00">Legend</text>
<polygon fill="#ffffb3" stroke="transparent" points="89,-10 89,-30 109,-30 109,-10 89,-10"/>
<text text-anchor="start" x="112.63" y="-15.4" font-family="Times-12" font-size="14.00"> &#160;Declarations</text>
<polygon fill="#8dd3c7" stroke="transparent" points="202,-10 202,-30 222,-30 222,-10 202,-10"/>
<text text-anchor="start" x="225.73" y="-15.4" font-family="Times-12" font-size="14.00"> &#160;Module</text>
<polygon fill="#80b1d3" stroke="transparent" points="288,-10 288,-30 308,-30 308,-10 288,-10"/>
<text text-anchor="start" x="311.78" y="-15.4" font-family="Times-12" font-size="14.00"> &#160;Bootstrap</text>
<polygon fill="#fdb462" stroke="transparent" points="385,-10 385,-30 405,-30 405,-10 385,-10"/>
<text text-anchor="start" x="408.67" y="-15.4" font-family="Times-12" font-size="14.00"> &#160;Providers</text>
<polygon fill="#fb8072" stroke="transparent" points="481,-10 481,-30 501,-30 501,-10 481,-10"/>
<text text-anchor="start" x="504.73" y="-15.4" font-family="Times-12" font-size="14.00"> &#160;Exports</text>
<g id="clust1" class="cluster">
<title>cluster_UserModule</title>
<polygon fill="none" stroke="black" stroke-dasharray="1,5" points="8,-70 8,-268 638,-268 638,-70 8,-70"/>
</g>
<g id="clust4" class="cluster">
<title>cluster_UserModule_exports</title>
<polygon fill="none" stroke="black" points="165,-208 165,-260 479,-260 479,-208 165,-208"/>
</g>
<g id="clust6" class="cluster">
<title>cluster_UserModule_providers</title>
<polygon fill="none" stroke="black" points="16,-78 16,-130 630,-130 630,-78 16,-78"/>
</g>
<!-- AdminEventsGateway  -->
<g id="node1" class="node">
<title>AdminEventsGateway </title>
<polygon fill="#fb8072" stroke="black" points="471.24,-252 324.76,-252 324.76,-216 471.24,-216 471.24,-252"/>
<text text-anchor="middle" x="398" y="-229.8" font-family="Times,serif" font-size="14.00">AdminEventsGateway </text>
</g>
<!-- WebEventsGateway  -->
<g id="node2" class="node">
<title>WebEventsGateway </title>
<polygon fill="#fb8072" stroke="black" points="306.78,-252 173.22,-252 173.22,-216 306.78,-216 306.78,-252"/>
<text text-anchor="middle" x="240" y="-229.8" font-family="Times,serif" font-size="14.00">WebEventsGateway </text>
</g>
<!-- UserModule -->
<g id="node3" class="node">
<title>UserModule</title>
<polygon fill="#8dd3c7" stroke="black" points="361.98,-187 358.98,-191 337.98,-191 334.98,-187 276.02,-187 276.02,-151 361.98,-151 361.98,-187"/>
<text text-anchor="middle" x="319" y="-164.8" font-family="Times,serif" font-size="14.00">UserModule</text>
</g>
<!-- UserModule&#45;&gt;AdminEventsGateway  -->
<g id="edge1" class="edge">
<title>UserModule&#45;&gt;AdminEventsGateway </title>
<path fill="none" stroke="black" stroke-dasharray="5,2" d="M343.43,-187.11C343.43,-187.11 343.43,-205.99 343.43,-205.99"/>
<polygon fill="black" stroke="black" points="339.93,-205.99 343.43,-215.99 346.93,-205.99 339.93,-205.99"/>
</g>
<!-- UserModule&#45;&gt;WebEventsGateway  -->
<g id="edge2" class="edge">
<title>UserModule&#45;&gt;WebEventsGateway </title>
<path fill="none" stroke="black" stroke-dasharray="5,2" d="M291.45,-187.11C291.45,-187.11 291.45,-205.99 291.45,-205.99"/>
<polygon fill="black" stroke="black" points="287.95,-205.99 291.45,-215.99 294.95,-205.99 287.95,-205.99"/>
</g>
<!-- UserAbility -->
<g id="node4" class="node">
<title>UserAbility</title>
<ellipse fill="#fdb462" stroke="black" cx="565" cy="-104" rx="56.76" ry="18"/>
<text text-anchor="middle" x="565" y="-99.8" font-family="Times,serif" font-size="14.00">UserAbility</text>
</g>
<!-- UserAbility&#45;&gt;UserModule -->
<g id="edge3" class="edge">
<title>UserAbility&#45;&gt;UserModule</title>
<path fill="none" stroke="black" d="M565,-122.11C565,-141.34 565,-169 565,-169 565,-169 372.13,-169 372.13,-169"/>
<polygon fill="black" stroke="black" points="372.13,-165.5 362.13,-169 372.13,-172.5 372.13,-165.5"/>
</g>
<!-- UserPublicService -->
<g id="node5" class="node">
<title>UserPublicService</title>
<ellipse fill="#fdb462" stroke="black" cx="407" cy="-104" rx="82.8" ry="18"/>
<text text-anchor="middle" x="407" y="-99.8" font-family="Times,serif" font-size="14.00">UserPublicService</text>
</g>
<!-- UserPublicService&#45;&gt;UserModule -->
<g id="edge4" class="edge">
<title>UserPublicService&#45;&gt;UserModule</title>
<path fill="none" stroke="black" d="M343.04,-115.62C343.04,-115.62 343.04,-140.85 343.04,-140.85"/>
<polygon fill="black" stroke="black" points="339.54,-140.85 343.04,-150.85 346.54,-140.85 339.54,-140.85"/>
</g>
<!-- UserService -->
<g id="node6" class="node">
<title>UserService</title>
<ellipse fill="#fdb462" stroke="black" cx="248" cy="-104" rx="58.44" ry="18"/>
<text text-anchor="middle" x="248" y="-99.8" font-family="Times,serif" font-size="14.00">UserService</text>
</g>
<!-- UserService&#45;&gt;UserModule -->
<g id="edge5" class="edge">
<title>UserService&#45;&gt;UserModule</title>
<path fill="none" stroke="black" d="M291.12,-116.23C291.12,-116.23 291.12,-140.68 291.12,-140.68"/>
<polygon fill="black" stroke="black" points="287.62,-140.68 291.12,-150.68 294.62,-140.68 287.62,-140.68"/>
</g>
<!-- UserTrpcRouter -->
<g id="node7" class="node">
<title>UserTrpcRouter</title>
<ellipse fill="#fdb462" stroke="black" cx="98" cy="-104" rx="73.55" ry="18"/>
<text text-anchor="middle" x="98" y="-99.8" font-family="Times,serif" font-size="14.00">UserTrpcRouter</text>
</g>
<!-- UserTrpcRouter&#45;&gt;UserModule -->
<g id="edge6" class="edge">
<title>UserTrpcRouter&#45;&gt;UserModule</title>
<path fill="none" stroke="black" d="M98,-122.11C98,-141.34 98,-169 98,-169 98,-169 265.86,-169 265.86,-169"/>
<polygon fill="black" stroke="black" points="265.86,-172.5 275.86,-169 265.86,-165.5 265.86,-172.5"/>
</g>
</g>
</svg>
