<?xml version="1.0" encoding="UTF-8" standalone="no"?>
<!DOCTYPE svg PUBLIC "-//W3C//DTD SVG 1.1//EN"
 "http://www.w3.org/Graphics/SVG/1.1/DTD/svg11.dtd">
<!-- Generated by graphviz version 2.47.0 (20210316.0004)
 -->
<!-- Title: dependencies Pages: 1 -->
<svg width="504pt" height="284pt"
 viewBox="0.00 0.00 504.00 284.00" xmlns="http://www.w3.org/2000/svg" xmlns:xlink="http://www.w3.org/1999/xlink">
<g id="graph0" class="graph" transform="scale(1 1) rotate(0) translate(4 280)">
<title>dependencies</title>
<polygon fill="white" stroke="transparent" points="-4,4 -4,-280 500,-280 500,4 -4,4"/>
<text text-anchor="start" x="227.01" y="-42.4" font-family="Times-12" font-weight="bold" font-size="14.00">Legend</text>
<polygon fill="#ffffb3" stroke="transparent" points="14,-10 14,-30 34,-30 34,-10 14,-10"/>
<text text-anchor="start" x="37.63" y="-15.4" font-family="Times-12" font-size="14.00"> &#160;Declarations</text>
<polygon fill="#8dd3c7" stroke="transparent" points="127,-10 127,-30 147,-30 147,-10 127,-10"/>
<text text-anchor="start" x="150.73" y="-15.4" font-family="Times-12" font-size="14.00"> &#160;Module</text>
<polygon fill="#80b1d3" stroke="transparent" points="213,-10 213,-30 233,-30 233,-10 213,-10"/>
<text text-anchor="start" x="236.78" y="-15.4" font-family="Times-12" font-size="14.00"> &#160;Bootstrap</text>
<polygon fill="#fdb462" stroke="transparent" points="310,-10 310,-30 330,-30 330,-10 310,-10"/>
<text text-anchor="start" x="333.67" y="-15.4" font-family="Times-12" font-size="14.00"> &#160;Providers</text>
<polygon fill="#fb8072" stroke="transparent" points="406,-10 406,-30 426,-30 426,-10 406,-10"/>
<text text-anchor="start" x="429.73" y="-15.4" font-family="Times-12" font-size="14.00"> &#160;Exports</text>
<g id="clust1" class="cluster">
<title>cluster_TodoModule</title>
<polygon fill="none" stroke="black" stroke-dasharray="1,5" points="19,-70 19,-268 477,-268 477,-70 19,-70"/>
</g>
<g id="clust6" class="cluster">
<title>cluster_TodoModule_providers</title>
<polygon fill="none" stroke="black" points="27,-78 27,-130 469,-130 469,-78 27,-78"/>
</g>
<g id="clust4" class="cluster">
<title>cluster_TodoModule_exports</title>
<polygon fill="none" stroke="black" points="94,-208 94,-260 408,-260 408,-208 94,-208"/>
</g>
<!-- AdminEventsGateway  -->
<g id="node1" class="node">
<title>AdminEventsGateway </title>
<polygon fill="#fb8072" stroke="black" points="400.24,-252 253.76,-252 253.76,-216 400.24,-216 400.24,-252"/>
<text text-anchor="middle" x="327" y="-229.8" font-family="Times,serif" font-size="14.00">AdminEventsGateway </text>
</g>
<!-- WebEventsGateway  -->
<g id="node2" class="node">
<title>WebEventsGateway </title>
<polygon fill="#fb8072" stroke="black" points="235.78,-252 102.22,-252 102.22,-216 235.78,-216 235.78,-252"/>
<text text-anchor="middle" x="169" y="-229.8" font-family="Times,serif" font-size="14.00">WebEventsGateway </text>
</g>
<!-- TodoModule -->
<g id="node3" class="node">
<title>TodoModule</title>
<polygon fill="#8dd3c7" stroke="black" points="309.6,-187 306.6,-191 285.6,-191 282.6,-187 220.4,-187 220.4,-151 309.6,-151 309.6,-187"/>
<text text-anchor="middle" x="265" y="-164.8" font-family="Times,serif" font-size="14.00">TodoModule</text>
</g>
<!-- TodoModule&#45;&gt;AdminEventsGateway  -->
<g id="edge1" class="edge">
<title>TodoModule&#45;&gt;AdminEventsGateway </title>
<path fill="none" stroke="black" stroke-dasharray="5,2" d="M281.72,-187.11C281.72,-187.11 281.72,-205.99 281.72,-205.99"/>
<polygon fill="black" stroke="black" points="278.22,-205.99 281.72,-215.99 285.22,-205.99 278.22,-205.99"/>
</g>
<!-- TodoModule&#45;&gt;WebEventsGateway  -->
<g id="edge2" class="edge">
<title>TodoModule&#45;&gt;WebEventsGateway </title>
<path fill="none" stroke="black" stroke-dasharray="5,2" d="M228.17,-187.11C228.17,-187.11 228.17,-205.99 228.17,-205.99"/>
<polygon fill="black" stroke="black" points="224.67,-205.99 228.17,-215.99 231.67,-205.99 224.67,-205.99"/>
</g>
<!-- TodoAbility -->
<g id="node4" class="node">
<title>TodoAbility</title>
<ellipse fill="#fdb462" stroke="black" cx="402" cy="-104" rx="58.57" ry="18"/>
<text text-anchor="middle" x="402" y="-99.8" font-family="Times,serif" font-size="14.00">TodoAbility</text>
</g>
<!-- TodoAbility&#45;&gt;TodoModule -->
<g id="edge3" class="edge">
<title>TodoAbility&#45;&gt;TodoModule</title>
<path fill="none" stroke="black" d="M371.67,-119.73C371.67,-138.97 371.67,-169 371.67,-169 371.67,-169 319.62,-169 319.62,-169"/>
<polygon fill="black" stroke="black" points="319.62,-165.5 309.62,-169 319.62,-172.5 319.62,-165.5"/>
</g>
<!-- TodoService -->
<g id="node5" class="node">
<title>TodoService</title>
<ellipse fill="#fdb462" stroke="black" cx="265" cy="-104" rx="60.25" ry="18"/>
<text text-anchor="middle" x="265" y="-99.8" font-family="Times,serif" font-size="14.00">TodoService</text>
</g>
<!-- TodoService&#45;&gt;TodoModule -->
<g id="edge4" class="edge">
<title>TodoService&#45;&gt;TodoModule</title>
<path fill="none" stroke="black" d="M265,-122.11C265,-122.11 265,-140.99 265,-140.99"/>
<polygon fill="black" stroke="black" points="261.5,-140.99 265,-150.99 268.5,-140.99 261.5,-140.99"/>
</g>
<!-- TodoTrpcRouter -->
<g id="node6" class="node">
<title>TodoTrpcRouter</title>
<ellipse fill="#fdb462" stroke="black" cx="111" cy="-104" rx="75.87" ry="18"/>
<text text-anchor="middle" x="111" y="-99.8" font-family="Times,serif" font-size="14.00">TodoTrpcRouter</text>
</g>
<!-- TodoTrpcRouter&#45;&gt;TodoModule -->
<g id="edge5" class="edge">
<title>TodoTrpcRouter&#45;&gt;TodoModule</title>
<path fill="none" stroke="black" d="M144.52,-120.4C144.52,-139.66 144.52,-169 144.52,-169 144.52,-169 210.14,-169 210.14,-169"/>
<polygon fill="black" stroke="black" points="210.14,-172.5 220.14,-169 210.14,-165.5 210.14,-172.5"/>
</g>
</g>
</svg>
