<?xml version="1.0" encoding="UTF-8" standalone="no"?>
<!DOCTYPE svg PUBLIC "-//W3C//DTD SVG 1.1//EN"
 "http://www.w3.org/Graphics/SVG/1.1/DTD/svg11.dtd">
<!-- Generated by graphviz version 2.47.0 (20210316.0004)
 -->
<!-- Title: dependencies Pages: 1 -->
<svg width="1164pt" height="284pt"
 viewBox="0.00 0.00 1164.00 284.00" xmlns="http://www.w3.org/2000/svg" xmlns:xlink="http://www.w3.org/1999/xlink">
<g id="graph0" class="graph" transform="scale(1 1) rotate(0) translate(4 280)">
<title>dependencies</title>
<polygon fill="white" stroke="transparent" points="-4,4 -4,-280 1160,-280 1160,4 -4,4"/>
<text text-anchor="start" x="557.01" y="-42.4" font-family="Times-12" font-weight="bold" font-size="14.00">Legend</text>
<polygon fill="#ffffb3" stroke="transparent" points="344,-10 344,-30 364,-30 364,-10 344,-10"/>
<text text-anchor="start" x="367.63" y="-15.4" font-family="Times-12" font-size="14.00"> &#160;Declarations</text>
<polygon fill="#8dd3c7" stroke="transparent" points="457,-10 457,-30 477,-30 477,-10 457,-10"/>
<text text-anchor="start" x="480.73" y="-15.4" font-family="Times-12" font-size="14.00"> &#160;Module</text>
<polygon fill="#80b1d3" stroke="transparent" points="543,-10 543,-30 563,-30 563,-10 543,-10"/>
<text text-anchor="start" x="566.78" y="-15.4" font-family="Times-12" font-size="14.00"> &#160;Bootstrap</text>
<polygon fill="#fdb462" stroke="transparent" points="640,-10 640,-30 660,-30 660,-10 640,-10"/>
<text text-anchor="start" x="663.67" y="-15.4" font-family="Times-12" font-size="14.00"> &#160;Providers</text>
<polygon fill="#fb8072" stroke="transparent" points="736,-10 736,-30 756,-30 756,-10 736,-10"/>
<text text-anchor="start" x="759.73" y="-15.4" font-family="Times-12" font-size="14.00"> &#160;Exports</text>
<g id="clust1" class="cluster">
<title>cluster_NoteModule</title>
<polygon fill="none" stroke="black" stroke-dasharray="1,5" points="8,-70 8,-268 1148,-268 1148,-70 8,-70"/>
</g>
<g id="clust3" class="cluster">
<title>cluster_NoteModule_imports</title>
<polygon fill="none" stroke="black" points="782,-78 782,-130 1140,-130 1140,-78 782,-78"/>
</g>
<g id="clust4" class="cluster">
<title>cluster_NoteModule_exports</title>
<polygon fill="none" stroke="black" points="486,-208 486,-260 800,-260 800,-208 486,-208"/>
</g>
<g id="clust6" class="cluster">
<title>cluster_NoteModule_providers</title>
<polygon fill="none" stroke="black" points="16,-78 16,-130 774,-130 774,-78 16,-78"/>
</g>
<!-- CollectionModule -->
<g id="node1" class="node">
<title>CollectionModule</title>
<polygon fill="#8dd3c7" stroke="black" points="1131.88,-122 1128.88,-126 1107.88,-126 1104.88,-122 1014.12,-122 1014.12,-86 1131.88,-86 1131.88,-122"/>
<text text-anchor="middle" x="1073" y="-99.8" font-family="Times,serif" font-size="14.00">CollectionModule</text>
</g>
<!-- NoteModule -->
<g id="node4" class="node">
<title>NoteModule</title>
<polygon fill="#8dd3c7" stroke="black" points="683.26,-187 680.26,-191 659.26,-191 656.26,-187 596.74,-187 596.74,-151 683.26,-151 683.26,-187"/>
<text text-anchor="middle" x="640" y="-164.8" font-family="Times,serif" font-size="14.00">NoteModule</text>
</g>
<!-- CollectionModule&#45;&gt;NoteModule -->
<g id="edge1" class="edge">
<title>CollectionModule&#45;&gt;NoteModule</title>
<path fill="none" stroke="black" d="M1073,-122.29C1073,-144.21 1073,-178 1073,-178 1073,-178 693.5,-178 693.5,-178"/>
<polygon fill="black" stroke="black" points="693.5,-174.5 683.5,-178 693.5,-181.5 693.5,-174.5"/>
</g>
<!-- InteractModule -->
<g id="node2" class="node">
<title>InteractModule</title>
<polygon fill="#8dd3c7" stroke="black" points="996.3,-122 993.3,-126 972.3,-126 969.3,-122 893.7,-122 893.7,-86 996.3,-86 996.3,-122"/>
<text text-anchor="middle" x="945" y="-99.8" font-family="Times,serif" font-size="14.00">InteractModule</text>
</g>
<!-- InteractModule&#45;&gt;NoteModule -->
<g id="edge2" class="edge">
<title>InteractModule&#45;&gt;NoteModule</title>
<path fill="none" stroke="black" d="M945,-122.11C945,-141.34 945,-169 945,-169 945,-169 693.38,-169 693.38,-169"/>
<polygon fill="black" stroke="black" points="693.38,-165.5 683.38,-169 693.38,-172.5 693.38,-165.5"/>
</g>
<!-- UserModule -->
<g id="node3" class="node">
<title>UserModule</title>
<polygon fill="#8dd3c7" stroke="black" points="875.98,-122 872.98,-126 851.98,-126 848.98,-122 790.02,-122 790.02,-86 875.98,-86 875.98,-122"/>
<text text-anchor="middle" x="833" y="-99.8" font-family="Times,serif" font-size="14.00">UserModule</text>
</g>
<!-- UserModule&#45;&gt;NoteModule -->
<g id="edge3" class="edge">
<title>UserModule&#45;&gt;NoteModule</title>
<path fill="none" stroke="black" d="M834.05,-122.03C834.05,-138.4 834.05,-160 834.05,-160 834.05,-160 693.55,-160 693.55,-160"/>
<polygon fill="black" stroke="black" points="693.55,-156.5 683.55,-160 693.55,-163.5 693.55,-156.5"/>
</g>
<!-- AdminEventsGateway  -->
<g id="node5" class="node">
<title>AdminEventsGateway </title>
<polygon fill="#fb8072" stroke="black" points="792.24,-252 645.76,-252 645.76,-216 792.24,-216 792.24,-252"/>
<text text-anchor="middle" x="719" y="-229.8" font-family="Times,serif" font-size="14.00">AdminEventsGateway </text>
</g>
<!-- NoteModule&#45;&gt;AdminEventsGateway  -->
<g id="edge4" class="edge">
<title>NoteModule&#45;&gt;AdminEventsGateway </title>
<path fill="none" stroke="black" stroke-dasharray="5,2" d="M664.63,-187.11C664.63,-187.11 664.63,-205.99 664.63,-205.99"/>
<polygon fill="black" stroke="black" points="661.13,-205.99 664.63,-215.99 668.13,-205.99 661.13,-205.99"/>
</g>
<!-- WebEventsGateway  -->
<g id="node6" class="node">
<title>WebEventsGateway </title>
<polygon fill="#fb8072" stroke="black" points="627.78,-252 494.22,-252 494.22,-216 627.78,-216 627.78,-252"/>
<text text-anchor="middle" x="561" y="-229.8" font-family="Times,serif" font-size="14.00">WebEventsGateway </text>
</g>
<!-- NoteModule&#45;&gt;WebEventsGateway  -->
<g id="edge5" class="edge">
<title>NoteModule&#45;&gt;WebEventsGateway </title>
<path fill="none" stroke="black" stroke-dasharray="5,2" d="M612.25,-187.11C612.25,-187.11 612.25,-205.99 612.25,-205.99"/>
<polygon fill="black" stroke="black" points="608.75,-205.99 612.25,-215.99 615.75,-205.99 608.75,-205.99"/>
</g>
<!-- NoteAbility -->
<g id="node7" class="node">
<title>NoteAbility</title>
<ellipse fill="#fdb462" stroke="black" cx="709" cy="-104" rx="57.34" ry="18"/>
<text text-anchor="middle" x="709" y="-99.8" font-family="Times,serif" font-size="14.00">NoteAbility</text>
</g>
<!-- NoteAbility&#45;&gt;NoteModule -->
<g id="edge6" class="edge">
<title>NoteAbility&#45;&gt;NoteModule</title>
<path fill="none" stroke="black" d="M667.61,-116.53C667.61,-116.53 667.61,-140.85 667.61,-140.85"/>
<polygon fill="black" stroke="black" points="664.11,-140.85 667.61,-150.85 671.11,-140.85 664.11,-140.85"/>
</g>
<!-- NoteListener -->
<g id="node8" class="node">
<title>NoteListener</title>
<ellipse fill="#fdb462" stroke="black" cx="572" cy="-104" rx="61.39" ry="18"/>
<text text-anchor="middle" x="572" y="-99.8" font-family="Times,serif" font-size="14.00">NoteListener</text>
</g>
<!-- NoteListener&#45;&gt;NoteModule -->
<g id="edge7" class="edge">
<title>NoteListener&#45;&gt;NoteModule</title>
<path fill="none" stroke="black" d="M615.03,-117.15C615.03,-117.15 615.03,-140.69 615.03,-140.69"/>
<polygon fill="black" stroke="black" points="611.53,-140.69 615.03,-150.69 618.53,-140.69 611.53,-140.69"/>
</g>
<!-- NotePublicService -->
<g id="node9" class="node">
<title>NotePublicService</title>
<ellipse fill="#fdb462" stroke="black" cx="409" cy="-104" rx="83.38" ry="18"/>
<text text-anchor="middle" x="409" y="-99.8" font-family="Times,serif" font-size="14.00">NotePublicService</text>
</g>
<!-- NotePublicService&#45;&gt;NoteModule -->
<g id="edge8" class="edge">
<title>NotePublicService&#45;&gt;NoteModule</title>
<path fill="none" stroke="black" d="M409,-122.03C409,-138.4 409,-160 409,-160 409,-160 586.55,-160 586.55,-160"/>
<polygon fill="black" stroke="black" points="586.55,-163.5 596.55,-160 586.55,-156.5 586.55,-163.5"/>
</g>
<!-- NoteService -->
<g id="node10" class="node">
<title>NoteService</title>
<ellipse fill="#fdb462" stroke="black" cx="249" cy="-104" rx="58.53" ry="18"/>
<text text-anchor="middle" x="249" y="-99.8" font-family="Times,serif" font-size="14.00">NoteService</text>
</g>
<!-- NoteService&#45;&gt;NoteModule -->
<g id="edge9" class="edge">
<title>NoteService&#45;&gt;NoteModule</title>
<path fill="none" stroke="black" d="M249,-122.11C249,-141.34 249,-169 249,-169 249,-169 586.66,-169 586.66,-169"/>
<polygon fill="black" stroke="black" points="586.66,-172.5 596.66,-169 586.66,-165.5 586.66,-172.5"/>
</g>
<!-- NoteTrpcRouter -->
<g id="node11" class="node">
<title>NoteTrpcRouter</title>
<ellipse fill="#fdb462" stroke="black" cx="98" cy="-104" rx="74.14" ry="18"/>
<text text-anchor="middle" x="98" y="-99.8" font-family="Times,serif" font-size="14.00">NoteTrpcRouter</text>
</g>
<!-- NoteTrpcRouter&#45;&gt;NoteModule -->
<g id="edge10" class="edge">
<title>NoteTrpcRouter&#45;&gt;NoteModule</title>
<path fill="none" stroke="black" d="M98,-122.29C98,-144.21 98,-178 98,-178 98,-178 586.56,-178 586.56,-178"/>
<polygon fill="black" stroke="black" points="586.56,-181.5 596.56,-178 586.56,-174.5 586.56,-181.5"/>
</g>
</g>
</svg>
