<?xml version="1.0" encoding="UTF-8" standalone="no"?>
<!DOCTYPE svg PUBLIC "-//W3C//DTD SVG 1.1//EN"
 "http://www.w3.org/Graphics/SVG/1.1/DTD/svg11.dtd">
<!-- Generated by graphviz version 2.47.0 (20210316.0004)
 -->
<!-- Title: dependencies Pages: 1 -->
<svg width="2363pt" height="211pt"
 viewBox="0.00 0.00 2363.00 211.00" xmlns="http://www.w3.org/2000/svg" xmlns:xlink="http://www.w3.org/1999/xlink">
<g id="graph0" class="graph" transform="scale(1 1) rotate(0) translate(4 207)">
<title>dependencies</title>
<polygon fill="white" stroke="transparent" points="-4,4 -4,-207 2359,-207 2359,4 -4,4"/>
<text text-anchor="start" x="1156.51" y="-42.4" font-family="Times-12" font-weight="bold" font-size="14.00">Legend</text>
<polygon fill="#ffffb3" stroke="transparent" points="943.5,-10 943.5,-30 963.5,-30 963.5,-10 943.5,-10"/>
<text text-anchor="start" x="967.13" y="-15.4" font-family="Times-12" font-size="14.00"> &#160;Declarations</text>
<polygon fill="#8dd3c7" stroke="transparent" points="1056.5,-10 1056.5,-30 1076.5,-30 1076.5,-10 1056.5,-10"/>
<text text-anchor="start" x="1080.23" y="-15.4" font-family="Times-12" font-size="14.00"> &#160;Module</text>
<polygon fill="#80b1d3" stroke="transparent" points="1142.5,-10 1142.5,-30 1162.5,-30 1162.5,-10 1142.5,-10"/>
<text text-anchor="start" x="1166.28" y="-15.4" font-family="Times-12" font-size="14.00"> &#160;Bootstrap</text>
<polygon fill="#fdb462" stroke="transparent" points="1239.5,-10 1239.5,-30 1259.5,-30 1259.5,-10 1239.5,-10"/>
<text text-anchor="start" x="1263.17" y="-15.4" font-family="Times-12" font-size="14.00"> &#160;Providers</text>
<polygon fill="#fb8072" stroke="transparent" points="1335.5,-10 1335.5,-30 1355.5,-30 1355.5,-10 1335.5,-10"/>
<text text-anchor="start" x="1359.23" y="-15.4" font-family="Times-12" font-size="14.00"> &#160;Exports</text>
<g id="clust1" class="cluster">
<title>cluster_AppModule</title>
<polygon fill="none" stroke="black" stroke-dasharray="1,5" points="8,-70 8,-195 2347,-195 2347,-70 8,-70"/>
</g>
<g id="clust3" class="cluster">
<title>cluster_AppModule_imports</title>
<polygon fill="none" stroke="black" points="16,-78 16,-130 2339,-130 2339,-78 16,-78"/>
</g>
<!-- AuthModule -->
<g id="node1" class="node">
<title>AuthModule</title>
<polygon fill="#8dd3c7" stroke="black" points="2330.55,-122 2327.55,-126 2306.55,-126 2303.55,-122 2243.45,-122 2243.45,-86 2330.55,-86 2330.55,-122"/>
<text text-anchor="middle" x="2287" y="-99.8" font-family="Times,serif" font-size="14.00">AuthModule</text>
</g>
<!-- AppModule -->
<g id="node21" class="node">
<title>AppModule</title>
<polygon fill="#8dd3c7" stroke="black" points="1231.66,-187 1228.66,-191 1207.66,-191 1204.66,-187 1148.34,-187 1148.34,-151 1231.66,-151 1231.66,-187"/>
<text text-anchor="middle" x="1190" y="-164.8" font-family="Times,serif" font-size="14.00">AppModule</text>
</g>
<!-- AuthModule&#45;&gt;AppModule -->
<g id="edge1" class="edge">
<title>AuthModule&#45;&gt;AppModule</title>
<path fill="none" stroke="black" d="M2287,-122.15C2287,-145.76 2287,-184 2287,-184 2287,-184 1241.66,-184 1241.66,-184"/>
<polygon fill="black" stroke="black" points="1241.66,-180.5 1231.66,-184 1241.66,-187.5 1241.66,-180.5"/>
</g>
<!-- BullModule -->
<g id="node2" class="node">
<title>BullModule</title>
<polygon fill="#8dd3c7" stroke="black" points="2224.67,-122 2221.67,-126 2200.67,-126 2197.67,-122 2141.33,-122 2141.33,-86 2224.67,-86 2224.67,-122"/>
<text text-anchor="middle" x="2183" y="-99.8" font-family="Times,serif" font-size="14.00">BullModule</text>
</g>
<!-- BullModule&#45;&gt;AppModule -->
<g id="edge2" class="edge">
<title>BullModule&#45;&gt;AppModule</title>
<path fill="none" stroke="black" d="M2183,-122.01C2183,-144.49 2183,-180 2183,-180 2183,-180 1241.72,-180 1241.72,-180"/>
<polygon fill="black" stroke="black" points="1241.72,-176.5 1231.72,-180 1241.72,-183.5 1241.72,-176.5"/>
</g>
<!-- CacheModule -->
<g id="node3" class="node">
<title>CacheModule</title>
<polygon fill="#8dd3c7" stroke="black" points="2123.03,-122 2120.03,-126 2099.03,-126 2096.03,-122 2028.97,-122 2028.97,-86 2123.03,-86 2123.03,-122"/>
<text text-anchor="middle" x="2076" y="-99.8" font-family="Times,serif" font-size="14.00">CacheModule</text>
</g>
<!-- CacheModule&#45;&gt;AppModule -->
<g id="edge3" class="edge">
<title>CacheModule&#45;&gt;AppModule</title>
<path fill="none" stroke="black" d="M2076,-122.04C2076,-143.66 2076,-177 2076,-177 2076,-177 1241.84,-177 1241.84,-177"/>
<polygon fill="black" stroke="black" points="1241.84,-173.5 1231.84,-177 1241.84,-180.5 1241.84,-173.5"/>
</g>
<!-- CaslModule -->
<g id="node4" class="node">
<title>CaslModule</title>
<polygon fill="#8dd3c7" stroke="black" points="2011.44,-122 2008.44,-126 1987.44,-126 1984.44,-122 1926.56,-122 1926.56,-86 2011.44,-86 2011.44,-122"/>
<text text-anchor="middle" x="1969" y="-99.8" font-family="Times,serif" font-size="14.00">CaslModule</text>
</g>
<!-- CaslModule&#45;&gt;AppModule -->
<g id="edge4" class="edge">
<title>CaslModule&#45;&gt;AppModule</title>
<path fill="none" stroke="black" d="M1969,-122.13C1969,-142.57 1969,-173 1969,-173 1969,-173 1241.88,-173 1241.88,-173"/>
<polygon fill="black" stroke="black" points="1241.88,-169.5 1231.88,-173 1241.88,-176.5 1241.88,-169.5"/>
</g>
<!-- CollectionModule -->
<g id="node5" class="node">
<title>CollectionModule</title>
<polygon fill="#8dd3c7" stroke="black" points="1908.88,-122 1905.88,-126 1884.88,-126 1881.88,-122 1791.12,-122 1791.12,-86 1908.88,-86 1908.88,-122"/>
<text text-anchor="middle" x="1850" y="-99.8" font-family="Times,serif" font-size="14.00">CollectionModule</text>
</g>
<!-- CollectionModule&#45;&gt;AppModule -->
<g id="edge5" class="edge">
<title>CollectionModule&#45;&gt;AppModule</title>
<path fill="none" stroke="black" d="M1850,-122.11C1850,-141.34 1850,-169 1850,-169 1850,-169 1241.79,-169 1241.79,-169"/>
<polygon fill="black" stroke="black" points="1241.79,-165.5 1231.79,-169 1241.79,-172.5 1241.79,-165.5"/>
</g>
<!-- CommentModule -->
<g id="node6" class="node">
<title>CommentModule</title>
<polygon fill="#8dd3c7" stroke="black" points="1773.27,-122 1770.27,-126 1749.27,-126 1746.27,-122 1658.73,-122 1658.73,-86 1773.27,-86 1773.27,-122"/>
<text text-anchor="middle" x="1716" y="-99.8" font-family="Times,serif" font-size="14.00">CommentModule</text>
</g>
<!-- CommentModule&#45;&gt;AppModule -->
<g id="edge6" class="edge">
<title>CommentModule&#45;&gt;AppModule</title>
<path fill="none" stroke="black" d="M1716,-122.27C1716,-140.56 1716,-166 1716,-166 1716,-166 1241.71,-166 1241.71,-166"/>
<polygon fill="black" stroke="black" points="1241.71,-162.5 1231.71,-166 1241.71,-169.5 1241.71,-162.5"/>
</g>
<!-- DatabaseModule -->
<g id="node7" class="node">
<title>DatabaseModule</title>
<polygon fill="#8dd3c7" stroke="black" points="1640.35,-122 1637.35,-126 1616.35,-126 1613.35,-122 1529.65,-122 1529.65,-86 1640.35,-86 1640.35,-122"/>
<text text-anchor="middle" x="1585" y="-99.8" font-family="Times,serif" font-size="14.00">DatabaseModule</text>
</g>
<!-- DatabaseModule&#45;&gt;AppModule -->
<g id="edge7" class="edge">
<title>DatabaseModule&#45;&gt;AppModule</title>
<path fill="none" stroke="black" d="M1585,-122.03C1585,-139.06 1585,-162 1585,-162 1585,-162 1241.9,-162 1241.9,-162"/>
<polygon fill="black" stroke="black" points="1241.9,-158.5 1231.9,-162 1241.9,-165.5 1241.9,-158.5"/>
</g>
<!-- FileModule -->
<g id="node8" class="node">
<title>FileModule</title>
<polygon fill="#8dd3c7" stroke="black" points="1511.83,-122 1508.83,-126 1487.83,-126 1484.83,-122 1430.17,-122 1430.17,-86 1511.83,-86 1511.83,-122"/>
<text text-anchor="middle" x="1471" y="-99.8" font-family="Times,serif" font-size="14.00">FileModule</text>
</g>
<!-- FileModule&#45;&gt;AppModule -->
<g id="edge8" class="edge">
<title>FileModule&#45;&gt;AppModule</title>
<path fill="none" stroke="black" d="M1471,-122.01C1471,-138.05 1471,-159 1471,-159 1471,-159 1241.77,-159 1241.77,-159"/>
<polygon fill="black" stroke="black" points="1241.77,-155.5 1231.77,-159 1241.77,-162.5 1241.77,-155.5"/>
</g>
<!-- HealthModule -->
<g id="node9" class="node">
<title>HealthModule</title>
<polygon fill="#8dd3c7" stroke="black" points="1412.37,-122 1409.37,-126 1388.37,-126 1385.37,-122 1315.63,-122 1315.63,-86 1412.37,-86 1412.37,-122"/>
<text text-anchor="middle" x="1364" y="-99.8" font-family="Times,serif" font-size="14.00">HealthModule</text>
</g>
<!-- HealthModule&#45;&gt;AppModule -->
<g id="edge9" class="edge">
<title>HealthModule&#45;&gt;AppModule</title>
<path fill="none" stroke="black" d="M1364,-122.12C1364,-136.78 1364,-155 1364,-155 1364,-155 1241.68,-155 1241.68,-155"/>
<polygon fill="black" stroke="black" points="1241.68,-151.5 1231.68,-155 1241.68,-158.5 1241.68,-151.5"/>
</g>
<!-- HelperModule -->
<g id="node10" class="node">
<title>HelperModule</title>
<polygon fill="#8dd3c7" stroke="black" points="1297.64,-122 1294.64,-126 1273.64,-126 1270.64,-122 1200.36,-122 1200.36,-86 1297.64,-86 1297.64,-122"/>
<text text-anchor="middle" x="1249" y="-99.8" font-family="Times,serif" font-size="14.00">HelperModule</text>
</g>
<!-- HelperModule&#45;&gt;AppModule -->
<g id="edge10" class="edge">
<title>HelperModule&#45;&gt;AppModule</title>
<path fill="none" stroke="black" d="M1216,-122.11C1216,-122.11 1216,-140.99 1216,-140.99"/>
<polygon fill="black" stroke="black" points="1212.5,-140.99 1216,-150.99 1219.5,-140.99 1212.5,-140.99"/>
</g>
<!-- HistoryModule -->
<g id="node11" class="node">
<title>HistoryModule</title>
<polygon fill="#8dd3c7" stroke="black" points="1181.54,-122 1178.54,-126 1157.54,-126 1154.54,-122 1080.46,-122 1080.46,-86 1181.54,-86 1181.54,-122"/>
<text text-anchor="middle" x="1131" y="-99.8" font-family="Times,serif" font-size="14.00">HistoryModule</text>
</g>
<!-- HistoryModule&#45;&gt;AppModule -->
<g id="edge11" class="edge">
<title>HistoryModule&#45;&gt;AppModule</title>
<path fill="none" stroke="black" d="M1164.97,-122.11C1164.97,-122.11 1164.97,-140.99 1164.97,-140.99"/>
<polygon fill="black" stroke="black" points="1161.47,-140.99 1164.97,-150.99 1168.47,-140.99 1161.47,-140.99"/>
</g>
<!-- InteractModule -->
<g id="node12" class="node">
<title>InteractModule</title>
<polygon fill="#8dd3c7" stroke="black" points="1062.3,-122 1059.3,-126 1038.3,-126 1035.3,-122 959.7,-122 959.7,-86 1062.3,-86 1062.3,-122"/>
<text text-anchor="middle" x="1011" y="-99.8" font-family="Times,serif" font-size="14.00">InteractModule</text>
</g>
<!-- InteractModule&#45;&gt;AppModule -->
<g id="edge12" class="edge">
<title>InteractModule&#45;&gt;AppModule</title>
<path fill="none" stroke="black" d="M1011,-122.12C1011,-136.78 1011,-155 1011,-155 1011,-155 1138.03,-155 1138.03,-155"/>
<polygon fill="black" stroke="black" points="1138.03,-158.5 1148.03,-155 1138.03,-151.5 1138.03,-158.5"/>
</g>
<!-- LoggerModule -->
<g id="node13" class="node">
<title>LoggerModule</title>
<polygon fill="#8dd3c7" stroke="black" points="941.98,-122 938.98,-126 917.98,-126 914.98,-122 842.02,-122 842.02,-86 941.98,-86 941.98,-122"/>
<text text-anchor="middle" x="892" y="-99.8" font-family="Times,serif" font-size="14.00">LoggerModule</text>
</g>
<!-- LoggerModule&#45;&gt;AppModule -->
<g id="edge13" class="edge">
<title>LoggerModule&#45;&gt;AppModule</title>
<path fill="none" stroke="black" d="M892,-122.01C892,-138.05 892,-159 892,-159 892,-159 1138.25,-159 1138.25,-159"/>
<polygon fill="black" stroke="black" points="1138.25,-162.5 1148.25,-159 1138.25,-155.5 1138.25,-162.5"/>
</g>
<!-- NoteModule -->
<g id="node14" class="node">
<title>NoteModule</title>
<polygon fill="#8dd3c7" stroke="black" points="824.26,-122 821.26,-126 800.26,-126 797.26,-122 737.74,-122 737.74,-86 824.26,-86 824.26,-122"/>
<text text-anchor="middle" x="781" y="-99.8" font-family="Times,serif" font-size="14.00">NoteModule</text>
</g>
<!-- NoteModule&#45;&gt;AppModule -->
<g id="edge14" class="edge">
<title>NoteModule&#45;&gt;AppModule</title>
<path fill="none" stroke="black" d="M781,-122.03C781,-139.06 781,-162 781,-162 781,-162 1138.15,-162 1138.15,-162"/>
<polygon fill="black" stroke="black" points="1138.15,-165.5 1148.15,-162 1138.15,-158.5 1138.15,-165.5"/>
</g>
<!-- NoteTagModule -->
<g id="node15" class="node">
<title>NoteTagModule</title>
<polygon fill="#8dd3c7" stroke="black" points="719.03,-122 716.03,-126 695.03,-126 692.03,-122 610.97,-122 610.97,-86 719.03,-86 719.03,-122"/>
<text text-anchor="middle" x="665" y="-99.8" font-family="Times,serif" font-size="14.00">NoteTagModule</text>
</g>
<!-- NoteTagModule&#45;&gt;AppModule -->
<g id="edge15" class="edge">
<title>NoteTagModule&#45;&gt;AppModule</title>
<path fill="none" stroke="black" d="M665,-122.27C665,-140.56 665,-166 665,-166 665,-166 1137.92,-166 1137.92,-166"/>
<polygon fill="black" stroke="black" points="1137.92,-169.5 1147.92,-166 1137.92,-162.5 1137.92,-169.5"/>
</g>
<!-- NotificationModule -->
<g id="node16" class="node">
<title>NotificationModule</title>
<polygon fill="#8dd3c7" stroke="black" points="592.7,-122 589.7,-126 568.7,-126 565.7,-122 465.3,-122 465.3,-86 592.7,-86 592.7,-122"/>
<text text-anchor="middle" x="529" y="-99.8" font-family="Times,serif" font-size="14.00">NotificationModule</text>
</g>
<!-- NotificationModule&#45;&gt;AppModule -->
<g id="edge16" class="edge">
<title>NotificationModule&#45;&gt;AppModule</title>
<path fill="none" stroke="black" d="M529,-122.11C529,-141.34 529,-169 529,-169 529,-169 1138.15,-169 1138.15,-169"/>
<polygon fill="black" stroke="black" points="1138.15,-172.5 1148.15,-169 1138.15,-165.5 1138.15,-172.5"/>
</g>
<!-- RedisModule -->
<g id="node17" class="node">
<title>RedisModule</title>
<polygon fill="#8dd3c7" stroke="black" points="447.94,-122 444.94,-126 423.94,-126 420.94,-122 356.06,-122 356.06,-86 447.94,-86 447.94,-122"/>
<text text-anchor="middle" x="402" y="-99.8" font-family="Times,serif" font-size="14.00">RedisModule</text>
</g>
<!-- RedisModule&#45;&gt;AppModule -->
<g id="edge17" class="edge">
<title>RedisModule&#45;&gt;AppModule</title>
<path fill="none" stroke="black" d="M402,-122.13C402,-142.57 402,-173 402,-173 402,-173 1138.19,-173 1138.19,-173"/>
<polygon fill="black" stroke="black" points="1138.19,-176.5 1148.19,-173 1138.19,-169.5 1138.19,-176.5"/>
</g>
<!-- SocketModule -->
<g id="node18" class="node">
<title>SocketModule</title>
<polygon fill="#8dd3c7" stroke="black" points="337.65,-122 334.65,-126 313.65,-126 310.65,-122 240.35,-122 240.35,-86 337.65,-86 337.65,-122"/>
<text text-anchor="middle" x="289" y="-99.8" font-family="Times,serif" font-size="14.00">SocketModule</text>
</g>
<!-- SocketModule&#45;&gt;AppModule -->
<g id="edge18" class="edge">
<title>SocketModule&#45;&gt;AppModule</title>
<path fill="none" stroke="black" d="M289,-122.04C289,-143.66 289,-177 289,-177 289,-177 1138.05,-177 1138.05,-177"/>
<polygon fill="black" stroke="black" points="1138.05,-180.5 1148.05,-177 1138.05,-173.5 1138.05,-180.5"/>
</g>
<!-- TRPCModule -->
<g id="node19" class="node">
<title>TRPCModule</title>
<polygon fill="#8dd3c7" stroke="black" points="222.06,-122 219.06,-126 198.06,-126 195.06,-122 127.94,-122 127.94,-86 222.06,-86 222.06,-122"/>
<text text-anchor="middle" x="175" y="-99.8" font-family="Times,serif" font-size="14.00">TRPCModule</text>
</g>
<!-- TRPCModule&#45;&gt;AppModule -->
<g id="edge19" class="edge">
<title>TRPCModule&#45;&gt;AppModule</title>
<path fill="none" stroke="black" d="M175,-122.01C175,-144.49 175,-180 175,-180 175,-180 1138.32,-180 1138.32,-180"/>
<polygon fill="black" stroke="black" points="1138.32,-183.5 1148.32,-180 1138.32,-176.5 1138.32,-183.5"/>
</g>
<!-- UserModule -->
<g id="node20" class="node">
<title>UserModule</title>
<polygon fill="#8dd3c7" stroke="black" points="109.98,-122 106.98,-126 85.98,-126 82.98,-122 24.02,-122 24.02,-86 109.98,-86 109.98,-122"/>
<text text-anchor="middle" x="67" y="-99.8" font-family="Times,serif" font-size="14.00">UserModule</text>
</g>
<!-- UserModule&#45;&gt;AppModule -->
<g id="edge20" class="edge">
<title>UserModule&#45;&gt;AppModule</title>
<path fill="none" stroke="black" d="M67,-122.15C67,-145.76 67,-184 67,-184 67,-184 1138.03,-184 1138.03,-184"/>
<polygon fill="black" stroke="black" points="1138.03,-187.5 1148.03,-184 1138.03,-180.5 1138.03,-187.5"/>
</g>
</g>
</svg>
